<svg xmlns="http://www.w3.org/2000/svg" viewBox="0 0 183 202">
    <title id="ehlLogoTitle">Equal Housing Lender Logo</title>
    <desc id="ehlLogoDesc">Citizens Bank is an Equal Housing Lender</desc>
        <g fill="none" fill-rule="evenodd">
            <polyline fill="#565656" points="9.064 51.203 95.184 .054 181.088 50.177 181.088 67.047 168.302 67.047 168.302 128.929 21.848 128.929 21.848 67.047 9.064 67.047 9.064 51.203"/>
            <polyline fill="#FFFFFE" points="34.693 53.729 34.693 114.339 155.459 114.339 155.459 53.216 95.698 20.001 34.693 53.729"/>
            <polygon fill="#565656" points="71.469 97.343 119.294 97.343 119.294 86.116 71.469 86.116"/>
            <polygon fill="#565656" points="71.469 73.006 118.722 73.006 118.722 61.769 71.469 61.769"/>
            <polyline fill="#565656" points="9.505 154.89 9.505 135.578 19.161 135.578 19.161 137.51 11.642 137.51 11.642 143.895 18.698 143.895 18.698 145.827 11.642 145.827 11.642 152.959 19.213 152.959 19.213 154.89 9.505 154.89"/>
            <path fill="#565656" d="M28.457 151.182L29.59 149.766 31.392 151.208C31.83 150.462 32.293 147.732 32.268 145.672 32.216 140.085 31.65 137.123 28.096 137.123 24.543 137.123 23.977 140.085 23.951 145.672 23.925 149.972 24.749 153.525 28.045 153.423 28.894 153.397 29.59 153.268 30.362 152.702L28.457 151.182zM35.203 154.427L34.122 155.765 31.959 153.964C31.135 154.788 29.513 155.354 28.096 155.354 22.457 155.354 21.788 150.179 21.736 144.822 21.736 140.393 22.406 135.192 28.045 135.192 33.787 135.192 34.482 140.393 34.482 144.822 34.482 146.161 34.302 150.874 32.989 152.573L35.203 154.427 35.203 154.427zM37.778 135.578L39.915 135.578 39.915 149.457C39.89 150.976 40.147 153.423 43.572 153.423 46.997 153.423 47.254 150.976 47.228 149.457L47.228 135.578 49.365 135.578 49.365 150.229C49.365 153.68 47.074 155.354 43.572 155.354 40.07 155.354 37.778 153.68 37.778 150.229L37.778 135.578M58.352 137.123L58.3 137.123 55.751 147.397 60.85 147.397 58.352 137.123zM56.961 135.578L59.794 135.578 65.227 154.89 62.858 154.89 61.339 149.329 55.236 149.329 53.82 154.89 51.451 154.89 56.961 135.578 56.961 135.578z"/>
            <polyline fill="#565656" points="67.364 154.89 67.364 135.578 69.502 135.578 69.502 152.959 77.381 152.959 77.381 154.89 67.364 154.89"/>
            <polyline fill="#565656" points="86.059 154.89 86.059 135.578 88.196 135.578 88.196 143.637 95.586 143.637 95.586 135.578 97.724 135.578 97.724 154.89 95.586 154.89 95.586 145.569 88.196 145.569 88.196 154.89 86.059 154.89"/>
            <path fill="#565656" d="M107.328 137.123C104.031 137.123 103.208 140.574 103.233 144.874 103.259 150.462 103.826 153.423 107.379 153.423 110.933 153.423 111.499 150.462 111.524 144.874 111.551 140.574 110.727 137.123 107.328 137.123zM107.431 135.192C113.07 135.192 113.765 140.393 113.739 144.822 113.714 150.179 113.019 155.354 107.379 155.354 101.74 155.354 101.07 150.179 101.019 144.822 101.019 140.393 101.688 135.192 107.431 135.192L107.431 135.192zM117.061 135.578L119.198 135.578 119.198 149.457C119.173 150.976 119.43 153.423 122.854 153.423 126.279 153.423 126.537 150.976 126.511 149.457L126.511 135.578 128.648 135.578 128.648 150.229C128.648 153.68 126.356 155.354 122.854 155.354 119.353 155.354 117.061 153.68 117.061 150.229L117.061 135.578M140.75 140.651C140.905 138.642 139.823 137.123 137.687 137.123 134.57 137.123 134.235 139.08 134.235 140.574 134.235 141.913 134.828 142.736 136.064 143.2 137.094 143.587 138.099 143.972 139.128 144.359 142.784 145.723 143.454 147.011 143.454 149.56 143.454 153.217 141.162 155.354 137.454 155.354 135.549 155.354 133.283 154.813 132.176 152.29 131.764 151.337 131.789 149.792 131.764 148.762L133.901 148.762C133.798 151.62 134.339 153.423 137.558 153.423 139.721 153.423 141.239 152.315 141.239 150.05 141.239 147.114 140.056 147.089 138.099 146.342 137.042 145.929 135.343 145.388 134.313 144.848 132.484 143.921 132.021 142.376 132.021 140.471 132.021 137.277 134.262 135.192 137.403 135.192 140.931 135.192 143.094 137.02 142.888 140.651L140.75 140.651"/>
            <polygon fill="#565656" points="147.033 154.89 149.171 154.89 149.171 135.578 147.033 135.578"/>
            <path fill="#565656" d="M163.024 135.578L165.161 135.578 165.161 154.89 161.659 154.89 156.252 139.44C155.942 138.565 155.711 137.689 155.531 136.531L155.479 136.531C155.505 137.51 155.531 138.513 155.531 139.492L155.531 154.89 153.394 154.89 153.394 135.578 156.87 135.578 162.354 151.388C162.586 151.98 162.767 152.598 163.024 153.5L163.075 153.5C163.05 152.804 163.024 152.058 163.024 151.337L163.024 135.578M180.585 155.045L178.938 155.045 178.938 152.032 178.886 152.032C178.319 154.221 176.594 155.354 174.457 155.354 168.715 155.354 168.276 149.637 168.276 145.105 168.276 140.599 169.075 135.192 174.663 135.192 178.345 135.192 180.456 137.587 180.405 141.191L178.242 141.191C178.216 138.823 177.212 137.175 174.766 137.123 170.543 137.046 170.491 141.887 170.491 145.182 170.491 148.118 170.337 153.242 174.147 153.423 178.113 153.603 178.474 149.972 178.448 146.908L174.147 146.908 174.147 144.976 180.585 144.976 180.585 155.045"/>
            <polyline fill="#565656" points="8.96 202 8.96 161.34 13.46 161.34 13.46 197.933 30.05 197.933 30.05 202 8.96 202"/>
            <polyline fill="#565656" points="35.58 202 35.58 161.34 55.91 161.34 55.91 165.406 40.08 165.406 40.08 178.85 54.934 178.85 54.934 182.917 40.08 182.917 40.08 197.933 56.018 197.933 56.018 202 35.58 202"/>
            <path fill="#565656" d="M83.125 161.34L87.625 161.34 87.625 202 80.252 202 68.867 169.471C68.216 167.629 67.729 165.785 67.349 163.346L67.241 163.346C67.295 165.406 67.349 167.52 67.349 169.58L67.349 202 62.849 202 62.849 161.34 70.168 161.34 81.715 194.627C82.204 195.874 82.583 197.175 83.125 199.072L83.233 199.072C83.179 197.608 83.125 196.036 83.125 194.518L83.125 161.34M100.744 197.933L107.955 197.933C114.568 197.933 117.279 193.001 116.846 180.856 116.521 171.586 115.22 165.406 107.955 165.406L100.744 165.406 100.744 197.933zM96.244 202L96.244 161.34 107.412 161.34C120.099 161.34 121.833 171.64 121.508 181.67 121.183 191.591 119.231 202 108.226 202L96.244 202 96.244 202z"/>
            <polyline fill="#565656" points="128.935 202 128.935 161.34 149.265 161.34 149.265 165.406 133.435 165.406 133.435 178.85 148.289 178.85 148.289 182.917 133.435 182.917 133.435 197.933 149.373 197.933 149.373 202 128.935 202"/>
            <path fill="#565656" d="M161.192,180.044 L168.294,180.044 C170.408,179.989 176.264,179.664 176.155,172.562 C176.047,165.568 170.571,165.406 167.535,165.406 L161.192,165.406 L161.192,180.044 Z M161.192,202 L156.692,202 L156.692,161.34 L167.155,161.34 C175.667,161.34 181.089,163.562 180.817,172.941 C180.655,177.712 177.728,181.128 173.011,181.778 L173.011,181.887 C178.27,182.375 179.57,184.055 180.221,189.476 C180.384,192.512 180.655,195.494 181.089,198.53 C181.251,199.289 181.576,201.078 182.661,201.078 L182.661,202 L177.402,202 C176.426,199.397 175.992,194.355 175.992,191.645 C175.992,187.579 174.366,184.109 169.053,184.109 L161.192,184.109 L161.192,202 L161.192,202 Z"/>
        </g>
</svg>