<svg xmlns="http://www.w3.org/2000/svg" viewBox="0 0 494 262" aria-labelledby="fdicLogoTitle fdicLogoDesc">
    <title id="fdicLogoTitle">FDIC Insured Logo</title>
    <desc id="fdicLogoDesc">Citizens Bank is FDIC insured</desc>
    <g fill="none" fill-rule="evenodd">
        <polyline fill="#565656" points="439.284 111.335 439.284 117.05 438.015 117.05 438.015 112.68 437.548 112.68 438.117 111.335 439.284 111.335"/>
        <path fill="#565656" d="M442.164 113.086C442.164 114.268 443.281 115.265 444.612 115.265 445.154 115.265 445.667 115.108 446.064 114.867 445.314 116.794 443.311 115.999 442.913 115.823L442.331 116.858C443.018 117.545 447.392 117.942 447.392 113.768 447.392 113.238 447.035 110.987 444.612 110.987L444.612 111.997C445.314 111.997 446.038 112.488 446.038 113.086 446.038 113.68 445.314 114.209 444.612 114.209 443.905 114.209 443.356 113.68 443.356 113.086 443.356 112.488 443.905 111.997 444.612 111.997L444.612 110.987C443.281 110.987 442.164 111.895 442.164 113.086M451.203 117.358C449.934 117.358 449.177 116.794 448.977 116.519L449.713 115.705C450.064 115.927 450.673 116.353 451.1 116.353 451.522 116.353 452.292 116.122 452.292 115.47 452.292 115.162 451.998 114.665 450.762 114.808L450.762 113.812C452.021 113.88 452.359 113.474 452.359 113.012 452.359 112.577 451.861 112.248 451.272 112.248 450.858 112.248 450.374 112.488 450.011 112.924L449.177 112.09C449.536 111.497 450.364 111.134 451.203 111.134 452.513 111.134 453.439 111.895 453.439 112.88 453.439 113.371 453.215 113.837 452.757 114.18 453.287 114.431 453.508 115.108 453.508 115.47 453.508 116.456 452.615 117.358 451.203 117.358M457.457 117.358C456.128 117.358 455.377 116.794 455.205 116.519L455.971 115.705C456.324 115.927 456.884 116.353 457.319 116.353 457.722 116.353 458.472 116.122 458.472 115.47 458.472 115.162 458.222 114.665 456.986 114.808L456.986 113.812C458.222 113.88 458.561 113.474 458.561 113.012 458.561 112.577 458.113 112.248 457.525 112.248 457.059 112.248 456.633 112.488 456.235 112.924L455.426 112.09C455.794 111.497 456.554 111.134 457.457 111.134 458.717 111.134 459.663 111.895 459.663 112.88 459.663 113.371 459.467 113.837 459.017 114.18 459.467 114.431 459.747 115.108 459.747 115.47 459.747 116.456 458.869 117.358 457.457 117.358M438.783 155.086L438.783 151.755 438.147 151.755 438.147 155.7 440.299 155.7 440.299 154.203 441.368 154.203 441.368 155.7 443.508 155.7 443.508 151.755 444.479 151.755C445.667 151.755 445.667 152.35 446.49 152.35 447.035 152.35 447.255 151.755 447.682 151.755 448.078 151.755 448.187 152.477 448.742 152.477 449.314 152.477 449.418 151.755 449.844 151.755 450.305 151.755 450.507 152.35 451.056 152.35 451.861 152.35 452.096 151.755 453.215 151.755 453.882 151.755 454.302 152.054 454.302 152.805 454.302 154.066 455.337 155.156 456.633 155.156 457.912 155.156 459.002 154.066 459.002 152.805L459.002 149.437C459.002 148.181 457.912 147.112 456.633 147.112L456.633 147.885C457.427 147.885 458.056 148.538 458.056 149.3 458.056 150.554 457.559 151.128 457.559 151.128 457.559 151.128 458.056 151.683 458.056 152.917 458.056 153.741 457.427 154.335 456.633 154.335 455.882 154.335 455.23 153.741 455.23 152.917 455.23 151.683 455.735 151.128 455.735 151.128 455.735 151.128 455.23 150.554 455.23 149.3 455.23 148.538 455.882 147.885 456.633 147.885L456.633 147.112C455.337 147.112 454.302 148.181 454.302 149.437 454.302 150.225 453.882 150.535 453.215 150.535 452.096 150.535 451.861 149.877 451.056 149.877 450.507 149.877 450.305 150.466 449.844 150.466 449.418 150.466 449.314 149.726 448.742 149.726 448.187 149.726 448.078 150.466 447.682 150.466 447.255 150.466 447.035 149.877 446.49 149.877 445.667 149.877 445.667 150.535 444.479 150.535 443.311 150.535 437.194 150.535 437.194 150.535L437.194 151.755 442.913 151.755 442.913 155.086 442.032 155.086 442.032 153.567 439.646 153.567 439.646 155.086 438.783 155.086"/>
        <path fill="#565656" d="M478.837,136.261 C478.837,152.654 465.604,165.881 449.183,165.881 L449.183,164.425 C464.765,164.425 477.336,151.814 477.336,136.261 C477.336,120.723 464.765,108.157 449.183,108.157 C433.679,108.157 421.106,120.723 421.106,136.261 C421.106,151.814 433.679,164.425 449.183,164.425 L449.183,165.881 C432.849,165.881 419.582,152.654 419.582,136.261 C419.582,119.874 432.849,106.631 449.183,106.631 C465.604,106.631 478.837,119.874 478.837,136.261"/>
        <path fill="#565656" d="M479.675,136.261 C479.675,119.477 466.02,105.793 449.183,105.793 C432.423,105.793 418.782,119.477 418.782,136.261 C418.782,153.071 432.423,166.721 449.183,166.721 L449.183,167.446 C431.985,167.446 418.032,153.467 418.032,136.261 C418.032,119.041 431.985,105.096 449.183,105.096 C466.457,105.096 480.368,119.041 480.368,136.261 C480.368,153.467 466.457,167.446 449.183,167.446 L449.183,166.721 C466.02,166.721 479.675,153.071 479.675,136.261"/>
        <path fill="#565656" d="M491.58,136.261 C491.58,159.701 472.643,178.63 449.183,178.63 L449.183,180.066 C473.408,180.066 493.075,160.465 493.075,136.261 C493.075,112.09 473.408,92.461 449.183,92.461 C425.041,92.461 405.436,112.09 405.436,136.261 C405.436,160.465 425.041,180.066 449.183,180.066 L449.183,178.63 C425.845,178.63 406.864,159.701 406.864,136.261 C406.864,112.88 425.845,93.903 449.183,93.903 C472.643,93.903 491.58,112.88 491.58,136.261"/>
        <path fill="#565656" d="M490.652,136.261 C490.652,113.371 472.127,94.811 449.183,94.811 C426.293,94.811 407.767,113.371 407.767,136.261 C407.767,159.172 426.293,177.703 449.183,177.703 L449.183,176.937 C426.729,176.937 408.517,158.765 408.517,136.261 C408.517,113.812 426.729,95.576 449.183,95.576 C471.73,95.576 489.901,113.812 489.901,136.261 C489.901,158.765 471.73,176.937 449.183,176.937 L449.183,177.703 C472.127,177.703 490.652,159.172 490.652,136.261"/>
        <path fill="#565656" d="M441.433 98.092L444.812 103.85C444.316 103.939 443.814 103.983 443.311 104.14L442.714 103.085 440.898 103.483 440.971 102.051 441.963 101.82 441.134 100.363 440.971 102.051 440.898 103.483 440.772 104.734C440.241 104.802 439.794 104.964 439.284 105.096L439.884 98.421 441.433 98.092M476.496 109.349L474.644 110.996C474.408 111.232 474.344 111.586 474.564 111.826L475.992 113.44 475.109 114.18 473.318 112.13 472.328 113.012 474.495 115.529C474.8 115.77 475.241 115.823 475.556 115.558L477.478 113.915C477.675 113.768 477.689 113.342 477.492 113.145L476.084 111.497 476.896 110.835 478.684 112.841 479.773 111.983 477.542 109.442C477.246 109.114 476.831 109.069 476.496 109.349M419.842 121.885C419.67 122.313 419.444 122.709 419.243 123.078L413.647 120.296 415.412 116.794 416.639 117.358 415.502 119.708 416.404 120.168 417.434 118.206 418.65 118.84 417.665 120.827 419.842 121.885M474.806 106.818C475.159 107.117 475.241 107.647 474.893 107.98L471.975 111.586C471.666 111.895 471.136 111.997 470.788 111.664 470.272 111.232 469.743 110.79 469.636 110.659 469.502 110.56 469.047 110.192 468.536 109.81 468.109 109.57 468.091 108.982 468.385 108.618L471.298 105.043C471.621 104.734 472.127 104.631 472.48 104.939L472.064 106.303 469.797 109.069 471.298 110.325 473.549 107.559 472.064 106.303 472.48 104.939 474.806 106.818M435.311 104.052L434.085 104.601 433.526 103.307 434.87 102.713C435.012 102.644 435.102 102.448 435.012 102.286L434.87 101.918C434.769 101.756 434.585 101.624 434.429 101.756L433.087 102.291 434.085 104.601 435.076 106.818C434.585 106.985 434.188 107.215 433.751 107.426L431.206 101.698 434.938 100.035C435.233 99.833 435.606 100.035 435.763 100.27L436.572 102.198C436.664 102.448 436.527 102.791 436.268 102.95 436.268 102.953 436.268 102.953 436.308 102.953 436.602 102.86 436.901 102.953 437.018 103.287 437.194 103.64 437.696 104.802 437.783 104.876 437.794 104.979 437.945 105.332 438.293 105.292L438.357 105.396C437.858 105.538 437.415 105.729 436.866 105.97 436.664 105.866 436.572 105.773 436.458 105.538 436.356 105.332 436.107 104.601 435.974 104.292 435.866 104.052 435.562 103.939 435.311 104.052M449.934 103.611L449.934 102.198 447.386 102.286 447.187 97.386 445.841 97.43 446.064 103.703C447.48 103.611 448.717 103.541 449.934 103.611M422.716 114.808L423.845 115.602C423.026 116.593 422.357 117.609 421.564 118.737L416.462 115.108 418.782 111.885 419.842 112.689 418.34 114.808 419.243 115.46 420.509 113.586 421.671 114.431 420.348 116.221 421.26 116.858 422.716 114.808M424.702 114.578L420.181 110.105 420.812 109.501 422.123 110.105 424.609 112.68 426.041 111.232 423.491 108.75 422.123 110.105 420.812 109.501 422.893 107.426C423.246 107.117 423.79 107.117 424.144 107.426L427.365 110.762C427.719 111.09 427.719 111.586 427.365 111.895 426.89 112.424 426.375 112.841 426.228 112.989 426.14 113.086 425.139 114.137 424.702 114.578M431.589 107.117L432.335 108.221C431.296 108.908 430.245 109.643 429.156 110.408L425.581 105.273 428.853 102.953 429.603 104.14 427.484 105.631 428.082 106.524 429.95 105.199 430.706 106.392 428.853 107.647 429.51 108.554 431.589 107.117M452.689 103.703L453.852 97.43 454.631 97.587 454.896 99.019 454.302 102.512 456.221 102.86 456.864 99.372 454.896 99.019 454.631 97.587 457.559 98.092C458.026 98.18 458.319 98.621 458.222 99.083L457.427 103.616C457.362 104.14 456.884 104.434 456.467 104.302 455.735 104.204 455.131 104.052 454.98 104.052 454.779 103.949 453.352 103.787 452.689 103.703M462.925 105.043L462.425 106.303C461.253 105.837 460.105 105.396 458.806 104.964L461.003 99.068 464.735 100.432 464.235 101.756 461.782 100.805 461.399 101.849 463.484 102.615 463.019 103.939 460.899 103.111 460.562 104.145 462.925 105.043M465.8 105.273L466.522 104.052 467.811 104.802C467.947 104.876 468.184 104.802 468.286 104.645L468.487 104.292C468.605 104.14 468.536 103.939 468.385 103.787L467.051 103.085 466.522 104.052 465.8 105.273 464.604 107.412C464.138 107.127 463.681 106.966 463.278 106.729L466.457 101.158 470.037 103.188C470.391 103.307 470.474 103.703 470.298 103.983L468.947 106.392C468.782 106.631 468.449 106.764 468.184 106.617L465.8 105.273M475.994 117.388L481.201 113.915 481.95 115.019 476.684 118.536C476.585 118.374 476.496 118.138 476.33 117.942 476.231 117.786 476.084 117.609 475.994 117.388M483.011 119.698L478.669 121.885C478.513 121.724 478.44 121.518 478.336 121.287 478.218 121.135 478.087 120.919 478.008 120.723L482.354 118.506 481.794 117.256 483.011 116.593 484.841 120.238 483.604 120.89 483.011 119.698"/>
        <polyline fill="#565656" points="414.152 125.158 414.108 126.85 415.653 127.447 414.078 127.919 413.882 129.63 412.976 128.218 411.327 128.64 412.387 127.321 411.474 125.887 413.064 126.417 414.152 125.158"/>
        <polyline fill="#565656" points="484.275 125.158 484.379 126.85 482.791 127.447 484.397 127.919 484.541 129.63 485.469 128.218 487.159 128.64 486.062 127.321 486.959 125.887 485.379 126.417 484.275 125.158"/>
        <path fill="#565656" d="M434.769 170.663L434.585 170.993 432.849 170.198 434.276 166.955 436.107 167.749 435.931 168.108 437.107 168.653 437.548 167.814C437.696 167.403 437.548 166.872 437.107 166.652 436.458 166.411 435.866 166.122 435.675 166.057 435.531 165.985 434.968 165.764 434.429 165.459 433.986 165.284 433.443 165.459 433.246 165.881L431.393 170.089C431.162 170.491 431.393 170.993 431.761 171.194L434.438 172.434C434.938 172.67 435.409 172.434 435.606 172.007L435.974 171.194 434.769 170.663M416.561 134.893L410.381 134.471 410.444 133.206 416.664 133.583C416.664 133.788 416.664 134 416.664 134.246 416.639 134.467 416.639 134.692 416.561 134.893M416.34 142.72L413.882 143.339C413.647 143.412 413.427 143.766 413.514 144.066L414.078 146.095 412.976 146.39 412.298 143.766 410.974 144.163 411.837 147.287C411.969 147.708 412.322 147.95 412.734 147.846L415.148 147.199C415.502 147.185 415.653 146.846 415.565 146.522L415.006 144.506 416.094 144.178 416.795 146.846 418.125 146.522 417.237 143.271C417.153 142.839 416.757 142.637 416.34 142.72M413.181 140.499L416.795 140.19C416.84 140.402 416.84 140.651 416.859 140.853 416.859 141.087 416.904 141.294 416.904 141.49L410.734 142.147 410.601 140.799 414.221 137.973 410.308 138.117 410.292 136.782 416.536 136.615C416.536 136.811 416.561 137.056 416.561 137.277 416.561 137.473 416.561 137.719 416.561 137.911L413.181 140.499M414.314 153.405C414.521 153.805 415.006 154.041 415.447 153.805L420.435 151.683 419.915 150.466 415.412 152.408 414.652 150.564 419.091 148.68 418.581 147.405 413.623 149.538C413.181 149.741 412.976 150.318 413.132 150.715L414.314 153.405"/>
        <polyline fill="#565656" points="420.862 163.204 421.922 162.615 423.196 161.943 424.702 161.115 423.947 162.615 423.196 161.943 421.922 162.615 423.261 163.938 422.696 165.062 423.79 166.118 426.82 160.159 425.698 159.03 419.773 162.105 420.862 163.204"/>
        <path fill="#565656" d="M423.491 156.425C423.701 156.719 423.614 157.087 423.358 157.248L421.671 158.437C421.372 158.599 421.019 158.509 420.862 158.279 420.862 158.264 420.862 158.264 420.812 158.264 420.812 158.279 420.812 158.368 420.812 158.368 421.009 158.599 420.932 158.927 420.681 159.104 420.332 159.364 419.243 160.025 419.18 160.098 419.091 160.163 418.787 160.364 418.919 160.751L418.847 160.761 417.987 159.427C417.993 159.265 418.125 159.104 418.34 158.967 418.493 158.833 419.224 158.437 419.474 158.236 419.68 158.082 419.773 157.773 419.582 157.573L418.847 156.425 419.98 155.686 420.812 156.891C420.932 157.025 421.166 157.087 421.26 156.94L421.606 156.744C421.77 156.587 421.828 156.425 421.696 156.248L420.862 155.037 419.98 155.686 418.847 156.425 416.84 157.779 416.006 156.587 421.171 153.071C421.857 154.141 422.696 155.454 423.491 156.425M441.801 169.634L442.164 168.309C440.971 168 439.794 167.667 438.455 167.309L436.754 173.331 440.545 174.371 440.898 173.033 438.446 172.341 438.691 171.327 440.829 171.92 441.227 170.58 439.107 169.993 439.354 168.898 441.801 169.634M429.716 166.955L431.746 163.938C431.898 164.042 432.09 164.174 432.252 164.291 432.427 164.425 432.629 164.533 432.849 164.631L429.308 169.83 428.229 169.104 428.391 164.488 425.939 167.618 424.947 166.808 428.759 161.811C428.92 161.949 429.072 162.105 429.308 162.251 429.51 162.385 429.646 162.541 429.818 162.615L429.716 166.955M452.757 175.197C452.316 175.259 451.861 174.92 451.851 174.465L451.188 169.898C451.1 169.457 451.424 169.006 451.954 168.962 452.615 168.859 453.287 168.809 453.439 168.809 453.641 168.794 454.205 168.653 454.847 168.565 455.294 168.443 455.73 168.809 455.794 169.299L456.467 173.862C456.53 174.329 456.19 174.7 455.73 174.819L455.044 173.563 454.54 169.993 452.615 170.296 453.058 173.804 455.044 173.563 455.73 174.819 452.757 175.197M466.457 164.174C466.766 163.973 467.119 164.129 467.281 164.425L468.605 166.808C468.708 167.108 468.619 167.446 468.311 167.549L465.933 168.898 465.269 167.647 466.608 166.955C466.766 166.808 466.814 166.647 466.751 166.475L466.522 166.118C466.457 165.96 466.256 165.881 466.064 165.97L464.765 166.647 465.269 167.647 465.933 168.898 467.119 171.09C466.608 171.331 466.168 171.488 465.8 171.772L462.793 166.122C463.616 165.725 465.427 164.793 466.457 164.174M484.732 152.35L480.259 150.422 479.704 151.683 478.47 151.128C479.015 150.123 479.675 148.538 480.102 147.405L481.354 147.95 480.765 149.21 485.292 151.128 484.732 152.35M448.844 173.578L448.844 174.003 446.931 173.93 447.035 170.33 449.021 170.428 448.977 170.826 450.305 170.826 450.364 169.898C450.364 169.457 450.011 169.094 449.511 169.006 448.844 169.006 448.183 169.006 447.991 169.006 447.833 168.993 447.187 168.993 446.592 168.898 446.137 168.898 445.695 169.299 445.695 169.757L445.508 174.357C445.493 174.857 445.841 175.215 446.332 175.215L449.314 175.357C449.772 175.357 450.173 175.02 450.173 174.553L450.173 173.67 448.844 173.578M460.807 166.872C461.16 166.808 461.489 167.004 461.586 167.31L462.224 169.299C462.283 169.56 462.131 169.898 461.827 169.993 461.827 169.993 461.782 169.993 461.827 170.002 461.827 170.089 461.827 170.089 461.896 170.089 462.15 169.988 462.444 170.134 462.576 170.428 462.681 170.826 463.044 172.007 463.088 172.14 463.088 172.239 463.175 172.58 463.588 172.58L463.588 172.67 462.087 173.112C461.915 173.008 461.782 172.832 461.753 172.58 461.69 172.434 461.454 171.576 461.385 171.327 461.253 171.022 461.003 170.889 460.738 170.978L459.443 171.346 459.07 170.089 460.497 169.634C460.658 169.56 460.738 169.339 460.658 169.192L460.571 168.809C460.497 168.653 460.342 168.505 460.146 168.565L458.717 169.006 459.07 170.089 459.443 171.346 460.146 173.67 458.806 174.107 456.986 168.147C458.222 167.814 459.663 167.403 460.807 166.872M472.417 167.814C472.064 168.065 471.534 168 471.224 167.647L468.311 164.042C468.046 163.733 468.091 163.144 468.449 162.851 468.947 162.453 469.532 162.041 469.641 161.949 469.797 161.855 470.272 161.443 470.724 161.045 471.092 160.692 471.626 160.761 471.96 161.149L474.806 164.724C475.159 165.086 475.095 165.631 474.741 165.96L473.476 165.219 471.224 162.408 469.729 163.645 471.975 166.425 473.476 165.219 474.741 165.96 472.417 167.814M475.007 156.495C475.241 156.248 475.639 156.248 475.903 156.449L477.423 157.837C477.675 158.014 477.675 158.376 477.478 158.599 477.478 158.599 477.478 158.614 477.492 158.676 477.492 158.676 477.492 158.676 477.492 158.614 477.776 158.437 478.087 158.376 478.316 158.599 478.669 158.907 479.567 159.721 479.661 159.765 479.704 159.853 480.008 160.098 480.259 159.938L480.362 159.956 479.333 161.149C479.111 161.149 478.91 161.06 478.773 160.953 478.582 160.761 478.008 160.163 477.776 159.956 477.542 159.765 477.246 159.805 477.026 160.025L476.153 161.045 475.109 160.098 476.084 159.03C476.231 158.833 476.198 158.614 476.084 158.509L475.756 158.264C475.639 158.132 475.403 158.132 475.33 158.264L474.314 159.408 475.109 160.098 476.153 161.045 478.008 162.615 476.992 163.733 472.328 159.57C473.217 158.599 474.3 157.485 475.007 156.495"/>
        <polyline fill="#565656" points="481.794 158.082 481 157.176 480.015 156.082 478.91 154.801 480.56 155.243 480.015 156.082 481 157.176 482.015 155.586 483.147 155.92 483.942 154.596 477.492 153.007 476.658 154.335 481 159.408 481.794 158.082"/>
        <path fill="#565656" d="M480.823 145.105L486.812 146.89 486.415 148.181 480.455 146.361C480.524 146.163 480.56 145.95 480.672 145.723 480.69 145.522 480.765 145.267 480.823 145.105M485.591 134.294L481.95 134.442C481.95 134.232 481.95 133.941 481.95 133.78 481.95 133.543 481.95 133.338 481.893 133.118L488.205 132.882 488.22 134.232 484.379 136.782 488.307 136.914 488.269 138.247 482.015 138.017C482.025 137.811 482.025 137.576 482.025 137.355 482.025 137.145 482.025 136.914 482.025 136.717L485.591 134.294M487.606 144.005C487.519 144.506 487.075 144.756 486.631 144.668L482.025 144.005C481.598 143.932 481.264 143.516 481.357 143.015 481.451 142.372 481.598 141.691 481.598 141.529 481.661 141.381 481.69 140.735 481.794 140.161 481.819 139.661 482.261 139.367 482.791 139.396L487.312 140.136C487.822 140.161 488.072 140.632 488.047 141.087L486.631 141.381 483.143 140.828 482.791 142.741 486.365 143.315 486.631 141.381 488.047 141.087 487.606 144.005M439.884 123.371C440.236 123.371 440.545 123.063 440.545 122.709 440.545 122.313 440.236 122.063 439.884 122.063 439.485 122.063 439.206 122.313 439.206 122.709 439.206 123.063 439.485 123.371 439.884 123.371"/>
        <path fill="#565656" d="M439.707 122.818L437.415 131.691 437.945 131.691 439.638 125.403 439.638 131.691 440.236 131.691 440.236 125.403 441.826 131.691 437.415 131.691C437.783 132.788 438.956 133.348 439.884 133.348 440.794 133.348 442.021 132.788 442.386 131.691L440.104 122.818 439.707 122.818M449.183 118.884L450.276 119.345 450.173 119.545C449.682 119.545 449.536 120.473 449.536 120.963 449.536 121.223 449.844 121.625 450.305 121.625 450.762 121.625 451.655 121.185 452.847 121.185 454.009 121.185 455.205 121.713 456.53 121.713 457.81 121.713 458.113 121.287 458.409 121.287 458.717 121.287 459.369 121.419 459.369 121.93 459.369 122.391 458.717 122.523 458.409 122.523 458.113 122.523 457.81 122.156 456.53 122.156 455.205 122.156 454.009 122.621 452.847 122.621 451.655 122.621 450.762 122.224 450.305 122.224 449.844 122.224 449.536 122.612 449.536 122.906 449.536 123.151 450.168 123.715 450.168 123.715L449.183 125.158 448.274 123.715C448.274 123.715 448.844 123.151 448.844 122.906 448.844 122.612 448.583 122.224 448.078 122.224 447.627 122.224 446.8 122.621 445.606 122.621 444.473 122.621 443.154 122.156 441.934 122.156 440.633 122.156 440.328 122.523 440.035 122.523 439.707 122.523 439.044 122.391 439.044 121.93 439.044 121.419 439.707 121.287 440.035 121.287 440.328 121.287 440.633 121.713 441.934 121.713 443.154 121.713 444.473 121.185 445.606 121.185 446.8 121.185 447.627 121.625 448.078 121.625 448.583 121.625 448.844 121.223 448.844 120.963 448.844 120.473 448.742 119.545 448.274 119.545L448.183 119.345 449.183 118.884"/>
        <path fill="#565656" d="M458.561,123.371 C458.222,123.371 457.894,123.063 457.894,122.709 C457.894,122.313 458.222,122.063 458.561,122.063 C458.914,122.063 459.237,122.313 459.237,122.709 C459.237,123.063 458.914,123.371 458.561,123.371"/>
        <path fill="#565656" d="M458.717 122.818L461.031 131.691 460.497 131.691 458.806 125.403 458.806 131.691 458.222 131.691 458.222 125.403 456.554 131.691 461.031 131.691C460.658 132.788 459.443 133.348 458.554 133.348 457.658 133.348 456.392 132.788 456.038 131.691L458.354 122.818 458.717 122.818M434.34 120.827C434.674 120.827 434.938 120.522 434.938 120.168 434.938 119.84 434.674 119.545 434.34 119.545 433.986 119.545 433.747 119.84 433.747 120.168 433.747 120.522 433.986 120.827 434.34 120.827M432.252 122.906C432.585 122.906 432.849 122.612 432.849 122.258 432.849 121.93 432.585 121.625 432.252 121.625 431.898 121.625 431.604 121.93 431.604 122.258 431.604 122.612 431.898 122.906 432.252 122.906M436.44 122.906C436.769 122.906 437.018 122.612 437.018 122.258 437.018 121.93 436.769 121.625 436.44 121.625 436.107 121.625 435.776 121.93 435.776 122.258 435.776 122.612 436.107 122.906 436.44 122.906M434.34 124.937C434.674 124.937 434.938 124.71 434.938 124.403 434.938 124.049 434.674 123.745 434.34 123.745 433.986 123.745 433.747 124.049 433.747 124.403 433.747 124.71 433.986 124.937 434.34 124.937M438.45 120.827C438.783 120.827 439.044 120.522 439.044 120.168 439.044 119.84 438.783 119.545 438.45 119.545 438.117 119.545 437.858 119.84 437.858 120.168 437.858 120.522 438.117 120.827 438.45 120.827M460.041 120.827C460.365 120.827 460.658 120.522 460.658 120.168 460.658 119.84 460.365 119.545 460.041 119.545 459.747 119.545 459.443 119.84 459.443 120.168 459.443 120.522 459.747 120.827 460.041 120.827M464.608 120.827C464.962 120.827 465.269 120.522 465.269 120.168 465.269 119.84 464.962 119.545 464.608 119.545 464.279 119.545 464.015 119.84 464.015 120.168 464.015 120.522 464.279 120.827 464.608 120.827M438.45 124.908C438.783 124.908 439.044 124.642 439.044 124.313 439.044 123.965 438.783 123.715 438.45 123.715 438.117 123.715 437.858 123.965 437.858 124.313 437.858 124.642 438.117 124.908 438.45 124.908M442.826 129.1C443.154 129.1 443.479 128.866 443.479 128.439 443.479 128.183 443.154 127.889 442.826 127.889 442.487 127.889 442.267 128.183 442.267 128.439 442.267 128.866 442.487 129.1 442.826 129.1M445.154 131.096C445.493 131.096 445.739 130.763 445.739 130.435 445.739 130.102 445.493 129.861 445.154 129.861 444.812 129.861 444.565 130.102 444.565 130.435 444.565 130.763 444.812 131.096 445.154 131.096M436.356 126.992C436.664 126.992 436.954 126.727 436.954 126.417 436.954 126.084 436.664 125.756 436.356 125.756 436.003 125.756 435.769 126.084 435.769 126.417 435.769 126.727 436.003 126.992 436.356 126.992M434.34 129.012C434.674 129.012 434.938 128.772 434.938 128.424 434.938 128.085 434.674 127.844 434.34 127.844 433.986 127.844 433.747 128.085 433.747 128.424 433.747 128.772 433.986 129.012 434.34 129.012M436.426 131.112C436.754 131.112 436.97 130.803 436.97 130.453 436.97 130.125 436.754 129.861 436.426 129.861 436.072 129.861 435.769 130.125 435.769 130.453 435.769 130.803 436.072 131.112 436.426 131.112M440.696 135.37C441.035 135.37 441.296 135.131 441.296 134.795 441.296 134.467 441.035 134.232 440.696 134.232 440.374 134.232 440.104 134.467 440.104 134.795 440.104 135.131 440.374 135.37 440.696 135.37M434.34 133.142C434.674 133.142 434.938 132.882 434.938 132.543 434.938 132.215 434.674 131.951 434.34 131.951 433.986 131.951 433.747 132.215 433.747 132.543 433.747 132.882 433.986 133.142 434.34 133.142M434.34 137.473C434.674 137.473 434.938 137.222 434.938 136.914 434.938 136.561 434.674 136.261 434.34 136.261 433.986 136.261 433.747 136.561 433.747 136.914 433.747 137.222 433.986 137.473 434.34 137.473M434.34 141.622C434.674 141.622 434.938 141.329 434.938 141 434.938 140.651 434.674 140.402 434.34 140.402 433.986 140.402 433.747 140.651 433.747 141 433.747 141.329 433.986 141.622 434.34 141.622M436.527 139.459C436.866 139.459 437.107 139.15 437.107 138.842 437.107 138.503 436.866 138.247 436.527 138.247 436.13 138.247 435.91 138.503 435.91 138.842 435.91 139.15 436.13 139.459 436.527 139.459M438.652 137.473C438.985 137.473 439.284 137.222 439.284 136.914 439.284 136.561 438.985 136.261 438.652 136.261 438.314 136.261 438.015 136.561 438.015 136.914 438.015 137.222 438.314 137.473 438.652 137.473M436.527 135.334C436.866 135.334 437.107 135.041 437.107 134.692 437.107 134.378 436.866 134.132 436.527 134.132 436.13 134.132 435.91 134.378 435.91 134.692 435.91 135.041 436.13 135.334 436.527 135.334M432.252 143.677C432.585 143.677 432.884 143.412 432.884 143.035 432.884 142.741 432.585 142.486 432.252 142.486 431.898 142.486 431.657 142.741 431.657 143.035 431.657 143.412 431.898 143.677 432.252 143.677M442.826 124.908C443.154 124.908 443.479 124.642 443.479 124.313 443.479 123.965 443.154 123.715 442.826 123.715 442.487 123.715 442.267 123.965 442.267 124.313 442.267 124.642 442.487 124.908 442.826 124.908M444.945 126.992C445.299 126.992 445.598 126.727 445.598 126.417 445.598 126.084 445.299 125.756 444.945 125.756 444.612 125.756 444.316 126.084 444.316 126.417 444.316 126.727 444.612 126.992 444.945 126.992M447.165 128.934C447.495 128.934 447.829 128.669 447.829 128.335 447.829 127.982 447.495 127.757 447.165 127.757 446.833 127.757 446.592 127.982 446.592 128.335 446.592 128.669 446.833 128.934 447.165 128.934M447.165 124.908C447.495 124.908 447.829 124.642 447.829 124.313 447.829 123.965 447.495 123.715 447.165 123.715 446.833 123.715 446.592 123.965 446.592 124.313 446.592 124.642 446.833 124.908 447.165 124.908M449.27 126.992C449.613 126.992 449.864 126.727 449.864 126.417 449.864 126.084 449.613 125.756 449.27 125.756 448.937 125.756 448.672 126.084 448.672 126.417 448.672 126.727 448.937 126.992 449.27 126.992M451.359 124.908C451.698 124.908 451.998 124.642 451.998 124.313 451.998 123.965 451.698 123.715 451.359 123.715 451.026 123.715 450.762 123.965 450.762 124.313 450.762 124.642 451.026 124.908 451.359 124.908M453.852 127.084C454.103 127.084 454.406 126.786 454.406 126.432 454.406 126.099 454.103 125.833 453.852 125.833 453.508 125.833 453.2 126.099 453.2 126.432 453.2 126.786 453.508 127.084 453.852 127.084M455.867 124.937C456.19 124.937 456.467 124.71 456.467 124.403 456.467 124.049 456.19 123.745 455.867 123.745 455.528 123.745 455.205 124.049 455.205 124.403 455.205 124.71 455.528 124.937 455.867 124.937M451.655 129.1C451.998 129.1 452.292 128.866 452.292 128.439 452.292 128.183 451.998 127.889 451.655 127.889 451.321 127.889 451.026 128.183 451.026 128.439 451.026 128.866 451.321 129.1 451.655 129.1M453.876 131.352C454.205 131.352 454.449 131.096 454.449 130.67 454.449 130.425 454.205 130.102 453.876 130.102 453.543 130.102 453.287 130.425 453.287 130.67 453.287 131.096 453.543 131.352 453.876 131.352M456.023 129.174C456.334 129.174 456.633 128.934 456.633 128.58 456.633 128.272 456.334 127.982 456.023 127.982 455.67 127.982 455.377 128.272 455.377 128.58 455.377 128.934 455.67 129.174 456.023 129.174M462.283 123.063C462.592 123.063 462.925 122.754 462.925 122.415 462.925 122.081 462.592 121.817 462.283 121.817 461.998 121.817 461.695 122.081 461.695 122.415 461.695 122.754 461.998 123.063 462.283 123.063M466.608 122.754C466.947 122.754 467.258 122.479 467.258 122.156 467.258 121.817 466.947 121.562 466.608 121.562 466.266 121.562 466.02 121.817 466.02 122.156 466.02 122.479 466.266 122.754 466.608 122.754M464.432 124.937C464.765 124.937 465.064 124.71 465.064 124.403 465.064 124.049 464.765 123.745 464.432 123.745 464.078 123.745 463.838 124.049 463.838 124.403 463.838 124.71 464.078 124.937 464.432 124.937M462.248 127.095C462.586 127.095 462.887 126.879 462.887 126.55 462.887 126.187 462.586 125.902 462.248 125.902 461.915 125.902 461.69 126.187 461.69 126.55 461.69 126.879 461.915 127.095 462.248 127.095M462.248 131.352C462.586 131.352 462.887 131.096 462.887 130.759 462.887 130.425 462.586 130.102 462.248 130.102 461.915 130.102 461.69 130.425 461.69 130.759 461.69 131.096 461.915 131.352 462.248 131.352M464.432 129.306C464.765 129.306 465.064 129.012 465.064 128.669 465.064 128.335 464.765 128.085 464.432 128.085 464.078 128.085 463.838 128.335 463.838 128.669 463.838 129.012 464.078 129.306 464.432 129.306M464.932 133.481C465.269 133.481 465.505 133.206 465.505 132.882 465.505 132.587 465.269 132.288 464.932 132.288 464.604 132.288 464.279 132.587 464.279 132.882 464.279 133.206 464.604 133.481 464.932 133.481M462.681 135.59C463.019 135.59 463.255 135.334 463.255 134.972 463.255 134.628 463.019 134.378 462.681 134.378 462.352 134.378 462.087 134.628 462.087 134.972 462.087 135.334 462.352 135.59 462.681 135.59M458.222 135.486C458.561 135.486 458.806 135.265 458.806 134.926 458.806 134.598 458.561 134.294 458.222 134.294 457.894 134.294 457.583 134.598 457.583 134.926 457.583 135.265 457.894 135.486 458.222 135.486M460.497 137.719C460.807 137.719 461.102 137.473 461.102 137.145 461.102 136.811 460.807 136.561 460.497 136.561 460.146 136.561 459.904 136.811 459.904 137.145 459.904 137.473 460.146 137.719 460.497 137.719M462.425 139.661C462.748 139.661 463.019 139.396 463.019 139.013 463.019 138.709 462.748 138.468 462.425 138.468 462.087 138.468 461.782 138.709 461.782 139.013 461.782 139.396 462.087 139.661 462.425 139.661M464.765 141.749C465.108 141.749 465.358 141.49 465.358 141.161 465.358 140.828 465.108 140.499 464.765 140.499 464.432 140.499 464.166 140.828 464.166 141.161 464.166 141.49 464.432 141.749 464.765 141.749M436.224 153.071C436.527 153.071 436.866 152.772 436.866 152.418 436.866 152.109 436.527 151.877 436.224 151.877 435.91 151.877 435.606 152.109 435.606 152.418 435.606 152.772 435.91 153.071 436.224 153.071M440.545 148.701C440.898 148.701 441.134 148.445 441.134 148.106 441.134 147.784 440.898 147.538 440.545 147.538 440.236 147.538 439.945 147.784 439.945 148.106 439.945 148.445 440.236 148.701 440.545 148.701M442.624 146.655C442.978 146.655 443.224 146.39 443.224 146.016 443.224 145.699 442.978 145.419 442.624 145.419 442.316 145.419 442.021 145.699 442.021 146.016 442.021 146.39 442.316 146.655 442.624 146.655M444.812 144.427C445.154 144.427 445.4 144.178 445.4 143.845 445.4 143.516 445.154 143.271 444.812 143.271 444.479 143.271 444.169 143.516 444.169 143.845 444.169 144.178 444.479 144.427 444.812 144.427M446.951 142.344C447.255 142.344 447.525 142.044 447.525 141.691 447.525 141.398 447.255 141.153 446.951 141.153 446.638 141.153 446.332 141.398 446.332 141.691 446.332 142.044 446.638 142.344 446.951 142.344M449.085 140.19C449.418 140.19 449.682 139.901 449.682 139.592 449.682 139.24 449.418 138.998 449.085 138.998 448.742 138.998 448.49 139.24 448.49 139.592 448.49 139.901 448.742 140.19 449.085 140.19M451.272 142.372C451.624 142.372 451.861 142.147 451.861 141.824 451.861 141.486 451.624 141.161 451.272 141.161 450.963 141.161 450.673 141.486 450.673 141.824 450.673 142.147 450.963 142.372 451.272 142.372M453.551 144.427C453.882 144.427 454.205 144.163 454.205 143.829 454.205 143.477 453.882 143.182 453.551 143.182 453.215 143.182 452.954 143.477 452.954 143.829 452.954 144.163 453.215 144.427 453.551 144.427M455.67 146.522C456.023 146.522 456.324 146.213 456.324 145.95 456.324 145.619 456.023 145.326 455.67 145.326 455.337 145.326 455.073 145.619 455.073 145.95 455.073 146.213 455.337 146.522 455.67 146.522M451.272 146.546C451.624 146.546 451.861 146.316 451.861 145.994 451.861 145.654 451.624 145.399 451.272 145.399 450.963 145.399 450.673 145.654 450.673 145.994 450.673 146.316 450.963 146.546 451.272 146.546M449.177 144.517C449.511 144.517 449.772 144.207 449.772 143.869 449.772 143.536 449.511 143.271 449.177 143.271 448.844 143.271 448.583 143.536 448.583 143.869 448.583 144.207 448.844 144.517 449.177 144.517M446.995 146.655C447.328 146.655 447.594 146.39 447.594 146.016 447.594 145.699 447.328 145.419 446.995 145.419 446.655 145.419 446.4 145.699 446.4 146.016 446.4 146.39 446.655 146.655 446.995 146.655M444.916 148.745C445.244 148.745 445.508 148.445 445.508 148.181 445.508 147.784 445.244 147.538 444.916 147.538 444.565 147.538 444.316 147.784 444.316 148.181 444.316 148.445 444.565 148.745 444.916 148.745M449.177 148.745C449.511 148.745 449.772 148.445 449.772 148.181 449.772 147.784 449.511 147.538 449.177 147.538 448.844 147.538 448.583 147.784 448.583 148.181 448.583 148.445 448.844 148.745 449.177 148.745M453.352 148.745C453.705 148.745 454.009 148.445 454.009 148.181 454.009 147.784 453.705 147.538 453.352 147.538 453.043 147.538 452.757 147.784 452.757 148.181 452.757 148.445 453.043 148.745 453.352 148.745M459.908 150.715C460.237 150.715 460.562 150.466 460.562 150.094 460.562 149.789 460.237 149.524 459.908 149.524 459.601 149.524 459.311 149.789 459.311 150.094 459.311 150.466 459.601 150.715 459.908 150.715M462.15 152.716C462.489 152.716 462.748 152.477 462.748 152.123 462.748 151.814 462.489 151.554 462.15 151.554 461.827 151.554 461.586 151.814 461.586 152.123 461.586 152.477 461.827 152.716 462.15 152.716M459.997 154.997C460.342 154.997 460.591 154.733 460.591 154.361 460.591 154.041 460.342 153.761 459.997 153.761 459.663 153.761 459.399 154.041 459.399 154.361 459.399 154.733 459.663 154.997 459.997 154.997M451.424 155.037C451.718 155.037 452.021 154.792 452.021 154.439 452.021 154.109 451.718 153.805 451.424 153.805 451.056 153.805 450.829 154.109 450.829 154.439 450.829 154.792 451.056 155.037 451.424 155.037M446.995 155.037C447.328 155.037 447.594 154.792 447.594 154.439 447.594 154.109 447.328 153.805 446.995 153.805 446.655 153.805 446.4 154.109 446.4 154.439 446.4 154.792 446.655 155.037 446.995 155.037M453.439 157.087C453.788 157.087 454.038 156.787 454.038 156.495 454.038 156.126 453.788 155.895 453.439 155.895 453.11 155.895 452.861 156.126 452.861 156.495 452.861 156.787 453.11 157.087 453.439 157.087M449.177 157.087C449.511 157.087 449.772 156.787 449.772 156.495 449.772 156.126 449.511 155.895 449.177 155.895 448.844 155.895 448.583 156.126 448.583 156.495 448.583 156.787 448.844 157.087 449.177 157.087M444.916 157.087C445.244 157.087 445.508 156.787 445.508 156.495 445.508 156.126 445.244 155.895 444.916 155.895 444.565 155.895 444.316 156.126 444.316 156.495 444.316 156.787 444.565 157.087 444.916 157.087"/>
        <path fill="#565656" d="M472.064,123.215 C473.079,123.652 474.741,125.594 473.672,126.584 C469.875,125.241 468.64,128.58 468.64,130.453 C468.64,134.795 471.975,137.056 471.975,144.825 C471.975,147.209 471.318,156.719 458.472,159.701 C456.467,160.098 452.096,161.281 449.183,163.958 L449.183,163.144 C452.359,160.251 458.424,159.172 459.399,158.907 C464.27,157.47 471.464,153.467 471.464,144.664 C471.464,139.15 469.199,134.893 467.119,134.893 C466.256,134.893 466.522,135.966 467.051,136.717 C467.296,137.145 467.648,137.911 466.854,137.719 C466.064,137.576 465.029,137.811 465.029,138.503 C465.029,138.911 465.427,138.911 465.706,138.709 C465.933,138.616 466.256,138.503 466.698,138.503 C467.589,138.503 468.536,139.063 468.536,139.739 C468.536,140.358 467.296,140.058 467.296,140.632 C467.296,140.931 470.272,143.015 470.272,145.502 C470.272,146.297 469.965,145.95 469.743,145.502 C469.532,145.022 469.047,144.373 468.605,144.373 C468.091,144.373 467.811,144.531 468.046,144.957 C468.251,145.355 469.047,146.546 469.047,148.303 C469.047,150.025 467.785,152.216 466.947,153.247 C466.594,153.741 466.457,153.448 466.368,153.247 C466.266,153.071 466.104,152.477 465.706,152.477 C465.029,152.477 465.427,155.83 457.81,157.837 C456.324,158.264 452.449,159.172 449.183,161.643 C445.995,159.172 442.134,158.264 440.633,157.837 C432.997,155.83 433.423,152.477 432.751,152.477 C432.335,152.477 432.187,153.071 432.09,153.247 C431.985,153.448 431.893,153.741 431.438,153.247 C430.642,152.216 429.405,150.025 429.405,148.303 C429.405,146.546 430.171,145.355 430.407,144.957 C430.612,144.531 430.308,144.373 429.867,144.373 C429.405,144.373 428.91,145.022 428.714,145.502 C428.48,145.95 428.186,146.297 428.186,145.502 C428.186,143.015 431.099,140.931 431.099,140.632 C431.099,140.058 429.907,140.358 429.907,139.739 C429.907,139.063 430.863,138.503 431.746,138.503 C432.202,138.503 432.495,138.616 432.751,138.709 C432.997,138.911 433.423,138.911 433.423,138.503 C433.423,137.811 432.397,137.576 431.589,137.719 C430.745,137.911 431.099,137.145 431.407,136.717 C431.898,135.966 432.202,134.893 431.304,134.893 C429.221,134.893 426.968,139.15 426.968,144.664 C426.968,153.467 434.188,157.47 438.985,158.907 C440,159.172 446.064,160.251 449.183,163.144 L449.183,163.958 C446.332,161.281 441.934,160.098 439.931,159.701 C427.057,156.719 426.468,147.209 426.468,144.825 C426.468,137.056 429.733,134.795 429.733,130.453 C429.733,128.58 428.557,125.241 424.702,126.584 C423.687,125.594 425.345,123.652 426.38,123.215 C426.174,122.313 429.377,118.153 434.571,118.153 C437.916,118.153 440.545,119.796 444.053,119.796 C445.464,119.796 447.833,119.178 449.183,118.354 L449.183,119.041 C447.833,119.874 445.464,120.537 444.053,120.537 C440.545,120.537 437.916,118.904 434.571,118.904 C431.985,118.904 430.067,119.874 428.823,120.963 C428.98,121.032 429.646,121.223 429.716,121.287 C430.044,121.562 429.867,121.885 429.421,121.724 C429.156,121.581 428.823,121.385 428.391,121.361 C428.229,121.562 428.058,121.724 427.881,121.885 C428.719,121.885 429.221,122.156 429.574,122.313 C429.971,122.553 429.867,122.921 429.377,122.724 C428.92,122.553 428.391,122.313 427.566,122.391 C427.391,122.621 427.287,122.818 427.287,122.974 L427.484,123.813 C426.82,123.813 424.947,124.404 425.275,125.594 C425.935,125.403 430.264,125.504 430.264,129.925 C430.264,130.656 430.545,130.602 430.545,130.362 C430.995,128.335 429.603,126.084 427.925,125.29 C427.264,124.995 427.42,124.404 428.381,124.908 C429.221,125.403 431.073,126.746 431.073,129.33 C431.073,129.925 430.907,131.112 430.907,131.112 C430.907,131.112 431.589,130.435 431.589,128.778 C431.589,126.054 429.377,123.813 427.484,123.813 L427.287,122.974 C428.391,122.818 432.335,123.902 432.335,129.262 C432.335,130.125 431.834,132.952 430.907,134.232 C431.898,134.03 433.924,134.099 432.335,136.825 C434.635,137.312 434.085,139.661 433.325,139.661 C432.397,139.661 432.427,139.146 431.501,139.146 C430.838,139.146 430.745,139.592 431.162,139.661 C431.604,139.828 431.898,140.136 431.898,140.632 C431.898,141.593 430.499,141.087 429.308,143.932 C429.716,143.766 429.95,143.712 430.245,143.712 C430.499,143.712 431.206,143.829 431.206,144.373 C431.206,144.972 429.971,145.856 429.971,148.2 C429.971,149.43 431.235,151.579 431.589,152.022 C431.898,151.683 432.29,151.378 432.731,151.378 C434.188,151.378 433.972,152.564 433.972,152.874 C433.972,153.213 435.606,155.993 440.241,157.176 C442.487,157.715 447.495,159.104 449.183,160.761 C450.963,159.104 455.882,157.715 458.207,157.176 C462.822,155.993 464.432,153.213 464.432,152.874 C464.432,152.564 464.27,151.378 465.706,151.378 C466.153,151.378 466.522,151.683 466.854,152.022 C467.192,151.579 468.449,149.43 468.449,148.2 C468.449,145.856 467.258,144.972 467.258,144.373 C467.258,143.829 467.942,143.712 468.184,143.712 C468.487,143.712 468.708,143.766 469.136,143.932 C467.942,141.087 466.522,141.593 466.522,140.632 C466.522,140.136 466.814,139.828 467.281,139.661 C467.648,139.592 467.608,139.146 466.947,139.146 C465.957,139.146 466.064,139.661 465.108,139.661 C464.367,139.661 463.77,137.312 466.064,136.825 C464.514,134.099 466.522,134.03 467.517,134.232 C466.608,132.952 466.064,130.125 466.064,129.262 C466.064,126.054 467.517,124.403 468.846,123.568 C468.64,123.273 468.404,123.063 468.184,122.906 C467.811,122.553 468.153,122.258 468.487,122.523 C468.753,122.709 469.047,122.921 469.301,123.371 C469.532,123.273 469.729,123.209 469.875,123.151 C469.636,122.818 469.301,122.612 469.136,122.391 C468.782,122.063 469.047,121.817 469.435,121.959 C469.597,122.063 469.944,122.313 470.391,123.053 C470.724,122.974 470.965,122.974 471.136,122.974 L470.965,123.813 C469.081,123.813 466.854,126.054 466.854,128.778 C466.854,130.435 467.517,131.112 467.517,131.112 C467.517,131.112 467.359,129.925 467.359,129.33 C467.359,126.746 469.199,125.403 470.096,124.908 C471.066,124.404 471.166,124.995 470.492,125.29 C468.841,126.084 467.448,128.335 467.854,130.362 C467.854,130.602 468.153,130.656 468.153,129.925 C468.153,125.504 472.51,125.403 473.151,125.594 C473.476,124.404 471.626,123.813 470.965,123.813 L471.136,122.974 C470.989,121.959 468.311,118.904 463.916,118.904 C460.562,118.904 457.894,120.537 454.382,120.537 C452.994,120.537 450.525,119.874 449.183,119.041 L449.183,118.354 C450.525,119.178 452.954,119.796 454.337,119.796 C457.894,119.796 460.562,118.153 463.916,118.153 C469.047,118.153 472.215,122.313 472.064,123.215"/>
        <path fill="#565656" d="M451.624 160.751C452.689 160.069 456.554 158.264 459.311 157.773 460.342 157.573 460.105 157.935 459.148 158.132 456.128 158.833 452.359 160.604 451.998 160.848 451.556 161.26 450.858 161.192 451.624 160.751M447.392 161.06C446.332 160.163 443.018 158.809 440.241 158.264 439.284 158.082 439.446 158.509 440.442 158.73 443.479 159.364 445.905 160.452 447.083 161.26 447.495 161.512 448.183 161.614 447.392 161.06M449.177 129.1L468.536 148.037C468.619 147.871 468.605 147.355 468.449 146.856L449.177 127.982 429.95 146.856C429.818 147.355 429.818 147.871 429.867 148.037L449.177 129.1"/>
        <polyline fill="#565656" points="449.177 137.65 464.676 152.772 465.108 152.054 449.177 136.482 433.325 152.054 433.751 152.772 449.177 137.65"/>
        <path fill="#565656" d="M449.177,135.723 L465.927,152.054 C467.281,153.144 468.184,149.741 468.487,148.773 L449.177,129.925 L429.907,148.773 L431.985,150.034 L431.985,149.077 L431.407,148.303 L432.335,148.037 L432.928,147.199 L433.443,148.037 L434.674,147.445 L434.736,146.449 L434.119,145.654 L435.076,145.355 L435.606,144.531 L436.204,145.355 L437.415,144.756 L437.455,143.766 L436.866,143.015 L437.783,142.72 L438.357,141.926 L438.911,142.72 L440.133,142.147 L440.133,141.161 L439.549,140.358 L440.476,140.058 L441.035,139.24 L441.635,140.058 L442.826,139.499 L442.913,138.484 L442.316,137.719 L443.224,137.38 L443.812,136.629 L444.316,137.38 L445.598,136.811 L445.598,135.821 L445.003,135.041 L445.905,134.775 L446.493,133.941 L447.083,134.775 L448.289,134.132 L448.289,133.206 L447.696,132.352 L448.672,132.113 L449.183,131.317 L449.772,132.113 L450.673,132.352 L450.168,133.206 L450.168,134.132 L450.433,135.041 L451.359,134.775 L451.864,133.941 L452.513,134.775 L453.409,135.041 L452.847,135.821 L452.861,136.811 L454.081,137.38 L454.631,136.629 L455.205,137.38 L456.128,137.719 L455.539,138.484 L455.539,139.499 L456.789,140.058 L457.362,139.24 L457.894,140.058 L458.869,140.358 L458.252,141.161 L458.252,142.147 L459.467,142.72 L460.061,141.926 L460.591,142.72 L461.586,143.015 L461.003,143.766 L461.003,144.756 L462.224,145.355 L462.748,144.531 L463.342,145.355 L464.27,145.654 L463.681,146.449 L463.681,147.445 L464.932,148.037 L465.505,147.199 L466.064,148.037 L467.051,148.303 L466.457,149.077 L466.457,150.034 L465.505,149.741 L464.604,150.034 L464.604,149.077 L464.015,148.303 L464.932,148.037 L463.681,147.445 L462.748,147.112 L461.896,147.445 L461.896,146.449 L461.253,145.654 L462.224,145.355 L461.003,144.756 L460.061,144.427 L459.148,144.756 L459.148,143.766 L458.561,143.015 L459.467,142.72 L458.252,142.147 L457.362,141.824 L456.421,142.147 L456.467,141.161 L455.867,140.358 L456.789,140.058 L455.539,139.499 L454.631,139.15 L453.705,139.499 L453.705,138.484 L453.11,137.719 L454.081,137.38 L452.861,136.811 L451.864,136.472 L450.968,136.811 L451.026,135.821 L450.433,135.041 L450.168,134.132 L449.183,133.804 L448.289,134.132 L447.083,134.775 L447.991,135.041 L447.392,135.821 L447.392,136.811 L446.493,136.472 L445.598,136.811 L444.316,137.38 L445.299,137.719 L444.699,138.484 L444.699,139.499 L443.812,139.15 L442.826,139.499 L441.635,140.058 L442.561,140.358 L441.963,141.161 L441.963,142.147 L441.035,141.824 L440.133,142.147 L438.911,142.72 L439.8,143.015 L439.284,143.766 L439.284,144.756 L438.357,144.427 L437.415,144.756 L436.204,145.355 L437.107,145.654 L436.527,146.449 L436.527,147.445 L435.606,147.112 L434.674,147.445 L433.443,148.037 L434.415,148.303 L433.841,149.077 L433.841,150.034 L432.928,149.741 L431.985,150.034 L429.907,148.773 C430.201,149.741 431.162,153.144 432.495,152.054 L449.177,135.723"/>
        <polyline fill="#565656" points="49.466 83.422 49.466 115.005 103.38 115.005 103.38 156.581 49.466 156.581 49.466 230.673 .437 230.673 .437 41.809 108.838 41.809 108.838 83.422 49.466 83.422"/>
        <polygon stroke="#565656" stroke-width=".875" points="49.466 83.422 49.466 115.005 103.38 115.005 103.38 156.581 49.466 156.581 49.466 230.673 .437 230.673 .437 41.809 108.838 41.809 108.838 83.422"/>
        <path fill="#565656" d="M118.08,41.809 L118.08,230.673 L166.932,230.673 L167.167,189.101 L167.167,83.422 L178.664,83.422 C210.271,83.422 232.548,102.448 232.548,136.233 C232.548,173.112 207.489,189.101 178.188,189.101 L167.167,189.101 L166.932,230.673 L187.713,230.673 C240.008,230.673 283.665,189.355 283.665,136.233 C283.665,83.177 240.312,41.809 187.713,41.809 L118.08,41.809"/>
        <path stroke="#565656" stroke-width=".875" d="M118.08,41.809 L118.08,230.673 L166.932,230.673 L167.167,189.101 L167.167,83.422 L178.664,83.422 C210.271,83.422 232.548,102.448 232.548,136.233 C232.548,173.112 207.489,189.101 178.188,189.101 L167.167,189.101 L166.932,230.673 L187.713,230.673 C240.008,230.673 283.665,189.355 283.665,136.233 C283.665,83.177 240.312,41.809 187.713,41.809 L118.08,41.809 Z"/>
        <polygon fill="#565656" points="290.62 230.672 339.728 230.672 339.728 41.809 290.62 41.809"/>
        <polygon stroke="#565656" stroke-width=".875" points="290.62 230.672 339.728 230.672 339.728 41.809 290.62 41.809"/>
        <path fill="#565656" d="M490.898,105.199 C480.921,91.632 464.608,84.413 447.833,84.413 C417.797,84.413 397.534,107.48 397.534,136.782 C397.534,166.558 418.032,188.1 448.583,188.1 C464.608,188.1 480.69,180.36 490.898,168.065 L490.898,226.966 C474.653,231.91 462.887,235.691 447.594,235.691 C421.26,235.691 396.23,225.651 376.763,207.876 C355.908,189.101 346.388,164.533 346.388,136.482 C346.388,110.693 356.147,85.958 374.184,67.398 C392.724,48.328 419.538,36.807 446.064,36.807 C461.896,36.807 476.434,40.285 490.898,46.332 L490.898,105.199"/>
        <path stroke="#565656" stroke-width=".875" d="M490.898,105.199 C480.921,91.632 464.608,84.413 447.833,84.413 C417.797,84.413 397.534,107.48 397.534,136.782 C397.534,166.558 418.032,188.1 448.583,188.1 C464.608,188.1 480.69,180.36 490.898,168.065 L490.898,226.966 C474.653,231.91 462.887,235.691 447.594,235.691 C421.26,235.691 396.23,225.651 376.763,207.876 C355.908,189.101 346.388,164.533 346.388,136.482 C346.388,110.693 356.147,85.958 374.184,67.398 C392.724,48.328 419.538,36.807 446.064,36.807 C461.896,36.807 476.434,40.285 490.898,46.332 L490.898,105.199 Z"/>
        <path fill="#565656" d="M.437 20.356L.437 18.331 1.988 18.331C2.885 18.331 3.425 18.036 3.425 16.447L3.425 5.819C3.425 4.626 3.116 4.317 1.674 4.317L.437 4.317.437 2.301 18.674 2.301 18.674 9.526 16.624 9.526C16.227 5.75 15.874 4.317 12.155 4.317L7.285 4.317 7.285 9.982 8.786 9.982C10.415 9.982 11.169 9.188 11.169 6.942L11.169 6.613 13.245 6.613 13.245 15.706 11.169 15.706 11.169 15.044C11.169 12.808 10.415 12.013 8.786 12.013L7.285 12.013 7.285 18.331 12.817 18.331C15.402 18.331 16.394 16.8 16.624 12.764L18.674 12.764 18.674 20.356.437 20.356M35.296 15.638L35.296 16.447C35.296 19.478 34.017 20.803 31.721 20.803 30.327 20.803 29.136 20.179 28.91 18.723 27.914 20.272 26.129 20.803 24.369 20.803 22.201 20.803 20.543 19.724 20.543 17.295 20.543 12.013 28.822 14.593 28.822 10.777 28.822 8.997 27.321 8.658 25.826 8.658 25.114 8.658 23.79 8.929 23.29 9.546 24.281 9.429 25.134 9.894 25.134 10.974 25.134 12.208 24.275 12.607 23.147 12.607 21.985 12.607 21.205 11.68 21.205 10.577 21.205 7.761 24.569 7.207 26.723 7.207 30.5 7.207 32.088 8.854 32.088 11.116L32.088 17.801C32.088 18.463 32.329 18.723 32.756 18.723 33.177 18.723 33.516 18.331 33.516 16.633L33.516 15.638 35.296 15.638zM28.822 13.621L25.909 14.956C25.114 15.284 24.216 15.706 24.216 17.001 24.216 18.134 24.781 18.723 25.909 18.723 27.792 18.723 28.822 17.136 28.822 15.441L28.822 13.621 28.822 13.621zM48.275 15.123C48.053 18.816 46.125 20.803 42.359 20.803 38.078 20.803 35.86 18.331 35.86 13.956 35.86 9.924 39.083 7.207 42.688 7.207 45.925 7.207 48.407 8.929 48.407 11.18 48.407 12.43 47.588 13.455 46.42 13.455 45.425 13.455 44.243 12.959 44.243 11.777 44.243 10.777 44.743 10.12 45.822 10.075 45.243 9.252 44.335 8.997 43.242 8.997 40.363 8.997 39.549 11.68 39.549 13.765 39.549 15.795 40.216 18.478 43.144 18.478 44.777 18.478 45.935 17.134 46.171 15.123L48.275 15.123M55.636 9.762L55.661 9.762C56.814 8.29 58.314 7.207 60.492 7.207 62.92 7.207 64.446 8.658 64.446 11.017L64.446 17.472C64.446 18.266 64.799 18.566 65.534 18.566L67.05 18.566 67.05 20.356 58.992 20.356 58.992 18.566 60.095 18.566C60.831 18.566 61.165 18.266 61.165 17.472L61.165 11.238C61.165 9.85 60.169 9.326 58.751 9.326 57.294 9.326 55.636 10.782 55.636 13.205L55.636 17.472C55.636 18.266 55.97 18.566 56.75 18.566L57.809 18.566 57.809 20.356 49.702 20.356 49.702 18.566 51.251 18.566C52.046 18.566 52.379 18.266 52.379 17.472L52.379 5.156C52.379 4.396 52.046 4.087 51.251 4.087L49.702 4.087 49.702 2.301 55.636 2.301 55.636 9.762M76.585 18.331L78.351 18.331C79.013 18.331 79.562 18.134 79.562 17.443L79.562 5.22C79.562 4.528 79.013 4.317 78.351 4.317L76.585 4.317 76.585 2.301 87.65 2.301C93.202 2.301 96.891 5.377 96.891 11.311 96.891 17.295 93.202 20.356 87.65 20.356L76.585 20.356 76.585 18.331zM83.471 18.331L86.846 18.331C90.068 18.331 92.521 16.678 92.521 11.311 92.521 5.951 90.068 4.317 87.15 4.317L83.471 4.317 83.471 18.331 83.471 18.331zM101.987 14.294C101.899 16.447 102.571 18.723 105.166 18.723 107.118 18.723 108.147 17.727 108.505 15.809L110.782 15.809C110.448 18.988 108.505 20.803 104.822 20.803 100.557 20.803 98.308 18.389 98.308 13.999 98.308 9.988 100.894 7.207 104.665 7.207 109.271 7.207 111.149 11.18 110.846 14.294L101.987 14.294zM107.118 12.528C107.176 10.777 106.588 9.09 104.665 9.09 102.737 9.09 102.056 10.777 101.987 12.528L107.118 12.528 107.118 12.528zM116.981 9.85L117.005 9.85C118.144 7.995 119.566 7.207 121.352 7.207 125.231 7.207 126.869 10.645 126.869 13.999 126.869 17.295 125.231 20.803 121.352 20.803 119.188 20.803 117.643 19.459 117.084 18.463L116.981 18.463 116.981 23.157C116.981 23.98 117.242 24.349 118.128 24.349L119.865 24.349 119.865 26.168 111.081 26.168 111.081 24.349 112.611 24.349C113.464 24.349 113.73 23.98 113.73 23.157L113.73 10.585C113.73 9.762 113.464 9.429 112.611 9.429L111.149 9.429 111.149 7.604 116.981 7.604 116.981 9.85zM117.084 13.999C117.084 17.134 118.438 18.634 120.316 18.634 121.876 18.634 123.2 17.046 123.2 13.999 123.2 10.517 121.852 9.326 120.316 9.326 118.438 9.326 117.084 10.87 117.084 13.999L117.084 13.999zM136.109 7.207C140.284 7.207 143.226 9.678 143.226 13.999 143.226 18.326 140.284 20.803 136.109 20.803 131.985 20.803 129.028 18.326 129.028 13.999 129.028 9.678 131.985 7.207 136.109 7.207zM136.109 18.988C138.341 18.988 139.533 17.271 139.533 13.999 139.533 10.674 138.341 8.997 136.109 8.997 133.927 8.997 132.738 10.674 132.738 13.999 132.738 17.271 133.927 18.988 136.109 18.988L136.109 18.988zM146.836 15.353C147.396 17.796 149.132 18.988 151.516 18.988 152.512 18.988 153.689 18.463 153.689 17.295 153.689 14.618 144.962 16.148 144.962 11.267 144.962 8.59 147.631 7.207 150.083 7.207 151.511 7.207 152.938 7.75 154.189 8.501L154.694 7.604 156.205 7.604 156.205 12.131 154.395 12.131C153.752 10.188 152.409 9.188 150.324 9.188 149.422 9.188 148.235 9.546 148.235 10.645 148.235 12.768 156.882 11.773 156.882 16.697 156.882 19.581 154.429 20.803 151.85 20.803 150.171 20.803 148.523 20.489 147.244 19.385L146.645 20.356 144.816 20.356 144.816 15.353 146.836 15.353M158.368 20.356L158.368 18.566 159.692 18.566C160.457 18.566 160.81 18.266 160.81 17.472L160.81 10.517C160.81 9.678 160.457 9.429 159.692 9.429L158.368 9.429 158.368 7.604 164.082 7.604 164.082 17.472C164.082 18.266 164.415 18.566 165.156 18.566L166.504 18.566 166.504 20.356 158.368 20.356zM162.076 1.949C163.135 1.949 164.082 2.836 164.082 3.934 164.082 5.057 163.135 5.907 162.076 5.907 160.987 5.907 160.06 5.057 160.06 3.934 160.06 2.836 160.987 1.949 162.076 1.949L162.076 1.949zM167.506 9.429L167.506 7.663C170.287 7.51 171.036 5.057 171.277 2.541L172.969 2.541 172.969 7.604 176.643 7.604 176.643 9.429 173.102 9.429 173.102 17.472C173.102 17.973 173.396 18.331 174.146 18.331 174.98 18.331 175.309 17.889 175.309 16.8L175.309 14.358 177.144 14.358 177.144 16.633C177.144 19.517 175.554 20.803 173.396 20.803 171.277 20.803 169.82 19.959 169.82 17.727L169.82 9.429 167.506 9.429M185.374 7.207C189.552 7.207 192.49 9.678 192.49 13.999 192.49 18.326 189.552 20.803 185.374 20.803 181.209 20.803 178.232 18.326 178.232 13.999 178.232 9.678 181.209 7.207 185.374 7.207zM185.374 18.988C187.625 18.988 188.816 17.271 188.816 13.999 188.816 10.674 187.625 8.997 185.374 8.997 183.151 8.997 181.999 10.674 181.999 13.999 181.999 17.271 183.151 18.988 185.374 18.988L185.374 18.988zM199.572 9.678L199.617 9.678C200.765 8.06 201.574 7.207 203.119 7.207 204.84 7.207 206.474 8.202 206.474 10.188 206.474 11.439 205.68 12.459 204.34 12.459 203.261 12.459 202.368 11.866 202.368 10.777 202.368 9.678 203.217 9.1 204.247 9.09 203.894 8.752 203.458 8.732 203.055 8.732 200.779 8.732 199.617 10.939 199.617 12.959L199.617 17.472C199.617 18.266 199.94 18.566 200.677 18.566L202.462 18.566 202.462 20.356 193.726 20.356 193.726 18.566 195.247 18.566C195.997 18.566 196.345 18.266 196.345 17.472L196.345 10.517C196.345 9.678 195.997 9.429 195.247 9.429L193.726 9.429 193.726 7.604 199.572 7.604 199.572 9.678M215.871 20.356L215.871 18.331 217.298 18.331C218.417 18.331 218.888 18.036 218.888 17.34L218.888 5.524C218.888 4.862 218.552 4.317 217.451 4.317L215.871 4.317 215.871 2.301 225.706 2.301 225.706 4.317 224.509 4.317C223.582 4.317 222.728 4.557 222.728 5.613L222.728 17.001C222.728 17.889 223.16 18.331 224.072 18.331L225.706 18.331 225.706 20.356 215.871 20.356M232.631 9.982L232.72 9.982C233.843 8.29 235.398 7.207 237.531 7.207 240.002 7.207 241.489 8.658 241.489 11.572L241.489 17.472C241.489 18.266 241.798 18.566 243.142 18.566L244.114 18.566 244.114 20.356 235.991 20.356 235.991 18.566 236.736 18.566C237.86 18.566 238.154 18.266 238.154 17.472L238.154 11.773C238.154 9.762 237.089 9.326 235.77 9.326 234.441 9.326 232.631 10.674 232.631 12.44L232.631 17.472C232.631 18.266 232.989 18.566 233.754 18.566L234.843 18.566 234.843 20.356 226.691 20.356 226.691 18.566 228.281 18.566C229.075 18.566 229.369 18.266 229.369 17.472L229.369 10.885C229.369 9.678 229.075 9.429 227.599 9.429L226.691 9.429 226.691 7.604 232.631 7.604 232.631 9.982M247.713 15.353C248.258 17.796 249.98 18.988 252.412 18.988 253.408 18.988 254.546 18.463 254.546 17.295 254.546 14.618 245.83 16.148 245.83 11.267 245.83 8.59 248.483 7.207 250.892 7.207 252.383 7.207 253.751 7.75 254.968 8.501L255.502 7.604 256.998 7.604 256.998 12.131 255.262 12.131C254.6 10.188 253.275 9.188 251.172 9.188 250.23 9.188 249.053 9.546 249.053 10.645 249.053 12.768 257.777 11.773 257.777 16.697 257.777 19.581 255.296 20.803 252.722 20.803 251.038 20.803 249.391 20.489 248.052 19.385L247.551 20.356 245.702 20.356 245.702 15.353 247.713 15.353M270.506 20.356L270.506 18.237 270.403 18.237C269.3 20.179 267.578 20.803 265.724 20.803 263.154 20.803 261.662 19.478 261.662 16.977L261.662 10.517C261.662 9.678 261.368 9.429 260.573 9.429L259.137 9.429 259.137 7.604 264.943 7.604 264.943 16.633C264.943 17.801 265.724 18.634 267.062 18.634 269.406 18.634 270.506 16.447 270.506 15.123L270.506 10.517C270.506 9.747 270.006 9.429 269.143 9.429L267.656 9.429 267.656 7.604 273.772 7.604 273.772 17.472C273.772 18.266 274.11 18.566 275.322 18.566L276.451 18.566 276.451 20.356 270.506 20.356M283.503 9.678L283.571 9.678C284.696 8.06 285.499 7.207 287.021 7.207 288.781 7.207 290.37 8.202 290.37 10.188 290.37 11.439 289.619 12.459 288.275 12.459 287.178 12.459 286.265 11.866 286.265 10.777 286.265 9.678 287.089 9.1 288.119 9.09 287.814 8.752 287.373 8.732 286.933 8.732 284.696 8.732 283.503 10.939 283.503 12.959L283.503 17.472C283.503 18.266 283.812 18.566 284.607 18.566L286.353 18.566 286.353 20.356 277.643 20.356 277.643 18.566 279.134 18.566C279.894 18.566 280.232 18.266 280.232 17.472L280.232 10.517C280.232 9.678 279.894 9.429 279.134 9.429L277.643 9.429 277.643 7.604 283.503 7.604 283.503 9.678M295.227 14.294C295.138 16.447 295.819 18.723 298.345 18.723 300.347 18.723 301.347 17.727 301.69 15.809L304.03 15.809C303.677 18.988 301.778 20.803 298.1 20.803 293.774 20.803 291.493 18.389 291.493 13.999 291.493 9.988 294.098 7.207 297.904 7.207 302.485 7.207 304.366 11.18 304.06 14.294L295.227 14.294zM300.347036 12.528C300.352 10.777 299.836 9.09 297.874 9.09 295.981 9.09 295.319 10.777 295.227 12.528L300.347036 12.528 300.347036 12.528zM315.429 18.134L315.399 18.134C314.257 19.978 312.868 20.803 311.06 20.803 307.188 20.803 305.556 17.295 305.556 13.999 305.556 10.645 307.547 7.207 311.06 7.207 313.212 7.207 314.757 8.501 315.399 9.546L315.429 9.546 315.429 5.279C315.429 4.484 315.183 4.087 314.296 4.087L312.575 4.087 312.575 2.301 318.67 2.301 318.67 17.34C318.67 18.168 318.961 18.566 319.799 18.566L321.255 18.566 321.255 20.356 315.429 20.356 315.429 18.134zM312.107 18.634C313.961 18.634 315.429 17.134 315.429 13.798 315.429 10.87 313.961 9.326 312.107 9.326 310.265 9.326 309.269 10.87 309.269 13.999 309.269 17.134 310.265 18.634 312.107 18.634L312.107 18.634zM330.678 9.429L330.678 7.663C333.526 7.51 334.203 5.057 334.454 2.541L336.211 2.541 336.211 7.604 339.885 7.604 339.885 9.429 336.308 9.429 336.308 17.472C336.308 17.973 336.549 18.331 337.3 18.331 338.196 18.331 338.535 17.889 338.535 16.8L338.535 14.358 340.36 14.358 340.36 16.633C340.36 19.517 338.727 20.803 336.546 20.803 334.454 20.803 333.032 19.959 333.032 17.727L333.032 9.429 330.678 9.429M348.6 7.207C352.73 7.207 355.677 9.678 355.677 13.999 355.677 18.326 352.73 20.803 348.6 20.803 344.431 20.803 341.449 18.326 341.449 13.999 341.449 9.678 344.431 7.207 348.6 7.207zM348.6 18.988C350.788 18.988 351.97 17.271 351.97 13.999 351.97 10.674 350.788 8.997 348.6 8.997 346.373 8.997 345.182 10.674 345.182 13.999 345.182 17.271 346.373 18.988 348.6 18.988L348.6 18.988zM372.064 13.784C369.165 13.121 366.036 12.131 366.036 8.658 366.036 5.377 369.033 3.523 372.064 3.494L372.064.953 374.091.953 374.091 3.494C376.537 3.523 379.892 4.862 379.892 7.736 379.892 8.854 379.097 9.762 377.867 9.762 376.91 9.762 375.875 9.326 375.875 8.261 375.875 6.912 376.61 6.5 377.867 6.5 376.867 5.573 375.419 5.216 374.091 5.156L374.091 10.429C377.273 11.017 380.795 12.234 380.795 15.652 380.795 19.385 377.361 20.803 374.091 20.803L374.091 23.828 372.064 23.828 372.064 20.803C368.817 20.803 365.59 19.385 365.59 16.633 365.59 15.284 366.282 14.22 367.827 14.22 369.317 14.22 369.916 15.456 369.916 16.006 369.916 17.295 369.081 17.727 367.827 17.576 368.636 18.919 370.607 19.061 372.064 19.061L372.064 13.784zM372.064 5.156C370.651 5.22 369.186 6.25 369.186 7.75 369.186 9.295 370.74 9.762 372.064 9.982L372.064 5.156zM374.091 19.061C375.586 19.017 377.571 18.331 377.571 16.604 377.571 15.638 377.205 14.911 374.091 14.22L374.091 19.061 374.091 19.061zM385.174 20.356L385.174 18.566 386.739 18.566C387.955 18.566 388.682 18.237 388.682 17.472L388.682 8.192 385.151 8.192 385.151 6.319C387.357 6.25 388.839 5.819 389.942 3.891L392.209 3.891 392.209 17.472C392.209 18.237 392.96 18.566 394.2 18.566L395.637 18.566 395.637 20.356 385.174 20.356M407.07 3.494C412.225 3.494 414.854 7.407 414.854 12.131 414.854 16.898 412.225 20.803 407.07 20.803 401.94 20.803 399.256 16.898 399.256 12.131 399.256 7.407 401.94 3.494 407.07 3.494zM407.07 18.723C409.188 18.723 410.734 16.8 410.734 12.131 410.734 7.407 409.188 5.509 407.07 5.509 404.926 5.509 403.425 7.407 403.425 12.131 403.425 16.8 404.926 18.723 407.07 18.723L407.07 18.723zM424.012 3.494C429.072 3.494 431.746 7.407 431.746 12.131 431.746 16.898 429.072 20.803 424.012 20.803 418.875 20.803 416.197 16.898 416.197 12.131 416.197 7.407 418.875 3.494 424.012 3.494zM424.012 18.723C426.14 18.723 427.631 16.8 427.631 12.131 427.631 7.407 426.14 5.509 424.012 5.509 421.857 5.509 420.348 7.407 420.348 12.131 420.348 16.8 421.857 18.723 424.012 18.723L424.012 18.723zM434.517 23.092C436.107 22.637 437.321 21.744 437.264 19.978L437.194 19.978C437.018 20.317 436.44 20.474 435.931 20.474 435.102 20.474 434.276 19.724 434.276 18.723 434.276 17.594 435.18 16.697 436.356 16.697 437.945 16.697 439.044 18.237 439.044 19.724 439.044 22.259 436.866 23.828 434.517 24.197L434.517 23.092M449.334 3.494C454.539 3.494 457.128 7.407 457.128 12.131 457.128 16.898 454.539 20.803 449.334 20.803 444.252 20.803 441.589 16.898 441.589 12.131 441.589 7.407 444.252 3.494 449.334 3.494zM449.334 18.723C451.522 18.723 452.994 16.8 452.994 12.131 452.994 7.407 451.522 5.509 449.334 5.509 447.255 5.509 445.739 7.407 445.739 12.131 445.739 16.8 447.255 18.723 449.334 18.723L449.334 18.723zM466.301 3.494C471.43 3.494 474.069 7.407 474.069 12.131 474.069 16.898 471.43 20.803 466.301 20.803 461.16 20.803 458.554 16.898 458.554 12.131 458.554 7.407 461.16 3.494 466.301 3.494zM466.301 18.723C468.449 18.723 469.965 16.8 469.965 12.131 469.965 7.407 468.449 5.509 466.301 5.509 464.166 5.509 462.681 7.407 462.681 12.131 462.681 16.8 464.166 18.723 466.301 18.723L466.301 18.723zM483.235 3.494C488.371 3.494 490.985 7.407 490.985 12.131 490.985 16.898 488.371 20.803 483.235 20.803 478.087 20.803 475.462 16.898 475.462 12.131 475.462 7.407 478.087 3.494 483.235 3.494zM483.235 18.723C485.379 18.723 486.881 16.8 486.881 12.131 486.881 7.407 485.379 5.509 483.235 5.509 481.116 5.509 479.571 7.407 479.571 12.131 479.571 16.8 481.116 18.723 483.235 18.723L483.235 18.723z"/>
        <polyline fill="#565656" points="2.468 245.668 2.468 250.607 8.625 250.607 8.625 252.622 2.468 252.622 2.468 261.264 .306 261.264 .306 243.652 8.786 243.652 8.786 245.668 2.468 245.668"/>
        <polyline fill="#565656" points="11.7 243.652 21.142 243.652 21.142 245.668 13.907 245.668 13.907 250.607 20.94 250.607 20.94 252.622 13.907 252.622 13.907 259.288 21.142 259.288 21.142 261.264 11.7 261.264 11.7 243.652"/>
        <path fill="#565656" d="M23.971,243.652 L27.65,243.652 C33.016,243.652 37.538,246.506 37.538,252.372 C37.538,258.351 33.08,261.264 27.562,261.264 L23.971,261.264 L23.971,243.652 Z M26.159,259.288 L26.954,259.288 C31.427,259.288 35.311,257.586 35.311,252.46 C35.311,247.326 31.427,245.668 26.954,245.668 L26.159,245.668 L26.159,259.288 L26.159,259.288 Z"/>
        <polyline fill="#565656" points="40.01 243.652 49.466 243.652 49.466 245.668 42.227 245.668 42.227 250.607 49.265 250.607 49.265 252.622 42.227 252.622 42.227 259.288 49.466 259.288 49.466 261.264 40.01 261.264 40.01 243.652"/>
        <path fill="#565656" d="M63.45 261.264L60.787 261.264 55.621 253.79 54.734 253.79 54.734 261.264 52.488 261.264 52.488 243.652 55.131 243.652C56.75 243.652 58.402 243.726 59.83 244.491 61.316 245.315 62.125 247.007 62.125 248.664 62.125 251.2 60.428 253.286 57.888 253.629L63.45 261.264zM54.734 251.995L55.401 251.995C57.65 251.995 60.095 251.578 60.095 248.758 60.095 245.977 57.446 245.619 55.308 245.619L54.734 245.619 54.734 251.995 54.734 251.995zM68.021 256.835L65.996 261.264 63.671 261.264 72.057 242.902 80.445 261.264 78.105 261.264 76.084 256.835 68.021 256.835zM72.057 247.756L68.909 254.821 75.172 254.821 72.057 247.756 72.057 247.756z"/>
        <polyline fill="#565656" points="84.462 259.288 89.828 259.288 89.828 261.264 82.24 261.264 82.24 243.652 84.462 243.652 84.462 259.288"/>
        <path fill="#565656" d="M98.377,243.652 L102.041,243.652 C107.417,243.652 111.944,246.506 111.944,252.372 C111.944,258.351 107.505,261.264 101.987,261.264 L98.377,261.264 L98.377,243.652 Z M100.56,259.288 L101.354,259.288 C105.828,259.288 109.737,257.586 109.737,252.46 C109.737,247.326 105.828,245.668 101.354,245.668 L100.56,245.668 L100.56,259.288 L100.56,259.288 Z"/>
        <polyline fill="#565656" points="114.421 243.652 123.892 243.652 123.892 245.668 116.648 245.668 116.648 250.607 123.691 250.607 123.691 252.622 116.648 252.622 116.648 259.288 123.892 259.288 123.892 261.264 114.421 261.264 114.421 243.652"/>
        <path fill="#565656" d="M129.16 261.264L126.913 261.264 126.913 243.652 129.4 243.652C134.83 243.652 136.551 245.517 136.551 248.758 136.551 252.46 133.727 253.878 130.396 253.878L129.16 253.878 129.16 261.264zM129.16 251.931L129.822 251.931C132.073 251.931 134.521 251.539 134.521 248.664 134.521 245.972 131.853 245.619 129.694 245.619L129.16 245.619 129.16 251.931 129.16 251.931zM156.042 252.46C156.042 257.69 151.869 261.672 146.802 261.672 141.681 261.672 137.567 257.69 137.567 252.46 137.567 247.427 141.77 243.284 146.802 243.284 151.85 243.284 156.042 247.427 156.042 252.46zM153.835 252.46C153.835 248.596 150.922 245.315 146.802 245.315 142.628 245.315 139.754 248.596 139.754 252.46 139.754 256.478 142.962 259.588 146.802 259.588 150.613 259.588 153.835 256.478 153.835 252.46L153.835 252.46zM166.26 247.007C165.583 245.882 164.758 245.315 163.435 245.315 162.076 245.315 160.457 246.281 160.457 247.856 160.457 249.244 161.875 249.945 162.929 250.346L164.23 250.876C166.711 251.798 168.599 253.216 168.599 256.145 168.599 259.322 166.107 261.672 162.929 261.672 160.089 261.672 157.873 259.588 157.544 256.704L159.712 256.261C159.712 258.184 161.237 259.588 163.135 259.588 165.053 259.588 166.401 257.983 166.401 256.145 166.401 254.256 164.916 253.462 163.371 252.788L162.14 252.289C160.148 251.445 158.299 250.283 158.299 247.856 158.299 244.987 160.81 243.284 163.488 243.284 165.45 243.284 167.098 244.25 168.035 245.972L166.26 247.007"/>
        <polygon fill="#565656" points="171.184 261.264 173.42 261.264 173.42 243.652 171.184 243.652"/>
        <polyline fill="#565656" points="181.763 261.264 179.576 261.264 179.576 245.668 175.407 245.668 175.407 243.652 185.932 243.652 185.932 245.668 181.763 245.668 181.763 261.264"/>
        <polygon fill="#565656" points="195.006 261.264 197.189 261.264 197.189 243.652 195.006 243.652"/>
        <polyline fill="#565656" points="200.539 242.838 213.782 256.639 213.782 243.652 215.965 243.652 215.965 262 202.766 248.12 202.766 261.264 200.539 261.264 200.539 242.838"/>
        <path fill="#565656" d="M227.265 247.007C226.599 245.882 225.765 245.315 224.42 245.315 223.013 245.315 221.468 246.281 221.468 247.856 221.468 249.244 222.816 249.945 223.916 250.346L225.171 250.876C227.692 251.798 229.585 253.216 229.585 256.145 229.585 259.322 227.099 261.672 223.916 261.672 221.07 261.672 218.888 259.588 218.461 256.704L220.731 256.261C220.698 258.184 222.233 259.588 224.116 259.588 226.009 259.588 227.354 257.983 227.354 256.145 227.354 254.256 225.837 253.462 224.352 252.788L223.116 252.289C221.095 251.445 219.241 250.283 219.241 247.856 219.241 244.987 221.821 243.284 224.45 243.284 226.436 243.284 228.025 244.25 228.972 245.972L227.265 247.007M234.137 243.652L234.137 254.026C234.137 256.904 235 259.588 238.419 259.588 241.798 259.588 242.686 256.904 242.686 254.026L242.686 243.652 244.863 243.652 244.863 254.806C244.863 258.647 242.45 261.672 238.419 261.672 234.402 261.672 231.959 258.647 231.959 254.806L231.959 243.652 234.137 243.652M259.137 261.264L256.532 261.264 251.323 253.79 250.396 253.79 250.396 261.264 248.213 261.264 248.213 243.652 250.892 243.652C252.427 243.652 254.104 243.726 255.502 244.491 256.998 245.315 257.881 247.007 257.881 248.664 257.881 251.2 256.189 253.286 253.618 253.629L259.137 261.264zM250.396 251.995L251.088 251.995C253.319 251.995 255.762 251.578 255.762 248.758 255.762 245.977 253.177 245.619 250.97 245.619L250.396 245.619 250.396 251.995 250.396 251.995zM263.708 256.835L261.697 261.264 259.367 261.264 267.725 242.902 276.2 261.264 273.836 261.264 271.831 256.835 263.708 256.835zM267.725 247.756L264.64 254.821 270.859 254.821 267.725 247.756 267.725 247.756z"/>
        <polyline fill="#565656" points="277.706 242.838 290.959 256.639 290.959 243.652 293.137 243.652 293.137 262 279.928 248.12 279.928 261.264 277.706 261.264 277.706 242.838"/>
        <path fill="#565656" d="M309.425,247.007 C308.18,245.882 306.458,245.286 304.805,245.286 C300.853,245.286 297.816,248.596 297.816,252.466 C297.816,256.306 300.793,259.675 304.722,259.675 C306.458,259.675 308.146,258.994 309.425,257.822 L309.425,260.411 C308.047,261.177 306.355,261.672 304.805,261.672 C299.758,261.672 295.628,257.655 295.628,252.535 C295.628,247.326 299.802,243.284 305.025,243.284 C306.547,243.284 308.077,243.652 309.425,244.491 L309.425,247.007"/>
        <polyline fill="#565656" points="312.314 243.652 321.8 243.652 321.8 245.668 314.561 245.668 314.561 250.607 321.643 250.607 321.643 252.622 314.561 252.622 314.561 259.288 321.8 259.288 321.8 261.264 312.314 261.264 312.314 243.652"/>
        <path fill="#565656" d="M344.73 247.007C343.46 245.882 341.753 245.286 340.06 245.286 336.108 245.286 333.106 248.596 333.106 252.466 333.106 256.306 336.108 259.675 340.031 259.675 341.753 259.675 343.405 258.994 344.73 257.822L344.73 260.411C343.391 261.177 341.669 261.672 340.06 261.672 335.064 261.672 330.942 257.655 330.942 252.535 330.942 247.326 335.064 243.284 340.258 243.284 341.816 243.284 343.405 243.652 344.73 244.491L344.73 247.007M364.859 252.46C364.859 257.69 360.69 261.672 355.658 261.672 350.542 261.672 346.388 257.69 346.388 252.46 346.388 247.427 350.625 243.284 355.658 243.284 360.68 243.284 364.859 247.427 364.859 252.46zM362.695 252.46C362.695 248.596 359.782 245.315 355.658 245.315 351.508 245.315 348.614 248.596 348.614 252.46 348.614 256.478 351.804 259.588 355.658 259.588 359.429 259.588 362.695 256.478 362.695 252.46L362.695 252.46zM378.265 261.264L375.586 261.264 370.406 253.79 369.48 253.79 369.48 261.264 367.297 261.264 367.297 243.652 369.98 243.652C371.549 243.652 373.202 243.726 374.624 244.491 376.102 245.315 376.935 247.007 376.935 248.664 376.935 251.2 375.277 253.286 372.658 253.629L378.265 261.264zM369.48 251.995L370.225 251.995C372.407 251.995 374.889 251.578 374.889 248.758 374.889 245.977 372.24 245.619 370.068 245.619L369.48 245.619 369.48 251.995 369.48 251.995zM382.473 261.264L380.29 261.264 380.29 243.652 382.806 243.652C388.256 243.652 389.942 245.517 389.942 248.758 389.942 252.46 387.064 253.878 383.783 253.878L382.473 253.878 382.473 261.264zM382.473 251.931L383.232 251.931C385.474 251.931 387.858 251.539 387.858 248.664 387.858 245.972 385.253 245.619 383.119 245.619L382.473 245.619 382.473 251.931 382.473 251.931zM409.385 252.46C409.385 257.69 405.275 261.672 400.154 261.672 395.038 261.672 390.934 257.69 390.934 252.46 390.934 247.427 395.107 243.284 400.154 243.284 405.235 243.284 409.385 247.427 409.385 252.46zM407.172 252.46C407.172 248.596 404.279 245.315 400.154 245.315 396.05 245.315 393.097 248.596 393.097 252.46 393.097 256.478 396.378 259.588 400.154 259.588 403.951 259.588 407.172 256.478 407.172 252.46L407.172 252.46zM422.8 261.264L420.137 261.264 414.972 253.79 414.016 253.79 414.016 261.264 411.837 261.264 411.837 243.652 414.477 243.652C416.094 243.652 417.752 243.726 419.141 244.491 420.578 245.315 421.46 247.007 421.46 248.664 421.46 251.2 419.773 253.286 417.237 253.629L422.8 261.264zM414.016 251.995L414.751 251.995C416.997 251.995 419.444 251.578 419.444 248.758 419.444 245.977 416.795 245.619 414.618 245.619L414.016 245.619 414.016 251.995 414.016 251.995zM427.287 256.835L425.275 261.264 422.951 261.264 431.393 242.902 439.794 261.264 437.455 261.264 435.409 256.835 427.287 256.835zM431.393 247.756L428.229 254.821 434.517 254.821 431.393 247.756 431.393 247.756z"/>
        <polyline fill="#565656" points="444.473 261.264 442.267 261.264 442.267 245.668 438.093 245.668 438.093 243.652 448.643 243.652 448.643 245.668 444.473 245.668 444.473 261.264"/>
        <polygon fill="#565656" points="450.609 261.264 452.757 261.264 452.757 243.652 450.609 243.652"/>
        <path fill="#565656" d="M473.614,252.46 C473.614,257.69 469.444,261.672 464.382,261.672 C459.247,261.672 455.131,257.69 455.131,252.46 C455.131,247.427 459.311,243.284 464.382,243.284 C469.435,243.284 473.614,247.427 473.614,252.46 Z M471.386,252.46 C471.386,248.596 468.536,245.315 464.382,245.315 C460.237,245.315 457.362,248.596 457.362,252.46 C457.362,256.478 460.571,259.588 464.382,259.588 C468.184,259.588 471.386,256.478 471.386,252.46 L471.386,252.46 Z"/>
        <polyline fill="#565656" points="475.835 242.838 489.064 256.639 489.064 243.652 491.252 243.652 491.252 262 478.008 248.12 478.008 261.264 475.835 261.264 475.835 242.838"/>
    </g>
</svg>