<?xml version="1.0" encoding="UTF-8"?>
<svg width="76px" height="76px" viewBox="0 0 76 76" version="1.1" xmlns="http://www.w3.org/2000/svg" xmlns:xlink="http://www.w3.org/1999/xlink">
    <!-- Generator: Sketch 56 (81588) - https://sketch.com -->
    <title>ATM ICON Copy 2</title>
    <desc>Created with Sketch.</desc>
    <defs>
        <circle id="path-1" cx="37.772869" cy="37.772869" r="37.772869"></circle>
        <path d="M6.37374667,27.1709923 C4.28315776,26.924734 2.16229356,26.1960988 0.379237927,24.9039665 C0.0350556067,24.6533624 -0.0207146767,24.1970601 0.25335643,23.8841671 C0.527427537,23.5727226 1.02936009,23.5205738 1.37194897,23.7697294 C3.31275483,25.1777479 5.75230637,25.8165712 7.99905207,25.8165712 C10.2808534,25.8165712 11.6464286,25.4529779 13.2191506,24.1029025 C14.0397705,23.3988932 14.34093,22.605072 14.34093,21.2245764 C14.34093,19.3037609 13.4055827,18.0507403 11.4376884,17.3351424 C6.9920001,15.6939026 4.55085512,14.7827465 4.06167007,14.5828427 C3.32072202,14.2771925 2.50647588,13.8237874 1.78305563,13.2081414 C0.666056527,12.2593223 0,11.1091507 0,9.76197246 C0,6.37519525 2.38378126,4.47755704 6.37374667,4.14293534 L6.37374667,0.724289395 C6.37374667,0.324481649 6.73067649,0 7.17046501,0 C7.61025353,0 7.96718334,0.324481649 7.96718334,0.724289395 L7.96718334,4.0907865 C10.74295,4.12410381 12.9275517,4.70932964 14.5018671,5.86819267 C14.8428626,6.12024538 14.895446,6.5765477 14.618188,6.88799214 C14.34093,7.197988 13.8405909,7.2457911 13.498002,6.99373839 C12.1929774,6.03188208 10.2712928,5.53791671 7.7090466,5.53791671 C3.711114,5.53791671 1.59343667,6.93144951 1.59343667,9.76197246 C1.59343667,10.6615399 2.05234643,11.4539125 2.87137288,12.1492303 C3.45138382,12.6417471 4.12222066,13.016929 4.71816597,13.2617388 C5.17866917,13.4515026 7.63574851,14.368453 12.0336337,15.9908613 C14.6022536,16.9251946 15.9343667,18.7112922 15.9343667,21.2245764 C15.9343667,22.973011 15.486611,24.1478084 14.3122482,25.1545707 C12.3985307,26.7987076 10.6521241,27.26515 7.99905207,27.26515 L7.96718334,27.26515 L7.96718334,31.144444 C7.96718334,31.5457003 7.61025353,31.8687334 7.17046501,31.8687334 C6.73067649,31.8687334 6.37374667,31.5457003 6.37374667,31.144444 L6.37374667,27.1709923 Z" id="path-3"></path>
    </defs>
    <g id="Page-1" stroke="none" stroke-width="1" fill="none" fill-rule="evenodd">
        <g id="Main-Artboard---iOS-SBA-PPP-Loan-Copy" transform="translate(-689.000000, -1852.000000)">
            <g id="ATM-ICON-Copy-2" transform="translate(687.000000, 1850.000000)">
                <g id="ATM-ICON">
                    <g id="99-icon-template/02-circle">
                        <g id="Circle" transform="translate(1.988046, 1.988046)">
                            <mask id="mask-2" fill="white">
                                <use xlink:href="#path-1"></use>
                            </mask>
                            <g id="Mask" fill-rule="nonzero"></g>
                            <g id="color/citi-blue" mask="url(#mask-2)" fill="#002D72" fill-rule="nonzero">
                                <g transform="translate(-1.988046, -1.988046)" id="Color-/-Citi-Blue">
                                    <rect x="0" y="0" width="79.5218295" height="79.5218295"></rect>
                                </g>
                            </g>
                        </g>
                    </g>
                    <rect id="Rectangle" opacity="0.752418155" x="0" y="56.2162162" width="80" height="21.6216216"></rect>
                    <rect id="Rectangle-Copy" opacity="0.695103237" x="0" y="2.16216216" width="80" height="21.6216216"></rect>
                    <g id="08-currency/013-dollar" transform="translate(31.351351, 23.783784)">
                        <mask id="mask-4" fill="white">
                            <use xlink:href="#path-3"></use>
                        </mask>
                        <use id="icon" stroke="#FFFFFF" stroke-width="2.04391892" fill="#056DAE" xlink:href="#path-3"></use>
                        <g id="Color---White" mask="url(#mask-4)" fill="#FFFFFF">
                            <g transform="translate(-10.422271, -3.186873)" id="#FFFFFF">
                                <rect x="0" y="0" width="38.1964648" height="38.1964648"></rect>
                            </g>
                        </g>
                    </g>
                </g>
            </g>
        </g>
    </g>
</svg>