<?xml version="1.0" encoding="UTF-8"?>
<svg width="78px" height="78px" viewBox="0 0 78 78" version="1.1" xmlns="http://www.w3.org/2000/svg" xmlns:xlink="http://www.w3.org/1999/xlink">
    <!-- Generator: Sketch 56 (81588) - https://sketch.com -->
    <title>ATM Icon 80 PX</title>
    <desc>Created with Sketch.</desc>
    <g id="Page-1" stroke="none" stroke-width="1" fill="none" fill-rule="evenodd">
        <g id="Main-Artboard---iOS-SBA-PPP-Loan-Copy" transform="translate(-1142.000000, -1851.000000)">
            <g id="ATM-Icon-80-PX" transform="translate(1142.000000, 1851.000000)">
                <g id="ATM-Icon-Default">
                    <circle id="Oval" fill="#056DAE" cx="39" cy="39" r="39"></circle>
                    <path d="M53.5116279,45.3488372 L56.2325581,45.3488372 L56.2325581,48.0697674 L20.8604651,48.0697674 L20.8604651,45.3488372 L23.5813953,45.3488372 L23.5813953,32.6511628 L17.2325581,32.6511628 L38.5465116,19.0465116 L59.8604651,32.6511628 L53.5116279,32.6511628 L53.5116279,45.3488372 Z M18.1395349,49.8837209 L58.9534884,49.8837209 L58.9534884,52.6046512 L18.1395349,52.6046512 L18.1395349,49.8837209 Z M29.0232558,33.5581395 L29.0232558,45.3488372 L31.744186,45.3488372 L31.744186,33.5581395 L29.0232558,33.5581395 Z M45.3488372,33.5581395 L45.3488372,45.3488372 L48.0697674,45.3488372 L48.0697674,33.5581395 L45.3488372,33.5581395 Z M37.1860465,33.5581395 L37.1860465,45.3488372 L39.9069767,45.3488372 L39.9069767,33.5581395 L37.1860465,33.5581395 Z" id="Combined-Shape" fill="#FFFFFF"></path>
                </g>
            </g>
        </g>
    </g>
</svg>