<?xml version="1.0" encoding="UTF-8"?>
<svg width="24px" height="25px" viewBox="0 0 24 25" version="1.1" xmlns="http://www.w3.org/2000/svg" xmlns:xlink="http://www.w3.org/1999/xlink">
    <title>10-service/248-insurance-purchase@3x</title>
    <defs>
        <path d="M19.082,9.45471251 L19.082,4.17061192 C19.082,3.56013818 18.681,3.01671647 18.08,2.81355881 L10,0.0824393992 C9.676,-0.0276460298 9.323,-0.0276460298 8.999,0.0834401758 L0.997,2.81255804 C0.399,3.01671647 0,3.5591374 0,4.16861037 L0,12.7933033 C0,15.6495198 1.396,18.3406082 3.773,20.061944 L8.599,23.5596583 C9.132,23.9449573 9.867,23.9459581 10.402,23.5616598 C11.106,22.9862133 11.588,22.5969112 11.859,22.3837457 C13.137,23.3935294 14.746,24 16.5,24 C20.643,24 24,20.6403929 24,16.4941753 C24,13.2586645 21.95,10.5095311 19.082,9.45471251 L19.082,9.45471251 Z M16.5,22.9992234 C12.91,22.9992234 10,20.0869634 10,16.4941753 C10,12.9013872 12.91,9.98912723 16.5,9.98912723 C20.09,9.98912723 23,12.9013872 23,16.4941753 C23,20.0869634 20.09,22.9992234 16.5,22.9992234 L16.5,22.9992234 Z M9,16.4941753 C9,17.2587686 9.116,17.9953402 9.328,18.6888784 C9.225,18.6838746 9.123,18.6538513 9.039,18.5867992 L5.723,15.9187287 C4.703,15.0980919 4.115,13.888153 4.115,12.6131635 L4.115,6.64653329 C4.115,6.44337564 4.248,6.26223507 4.448,6.19418226 L9.186,4.58593422 C9.291,4.54990626 9.406,4.54890548 9.512,4.58293189 L14.545,6.20419002 C14.748,6.26924051 14.886,6.45238263 14.886,6.65854261 L14.886,9.16748962 C11.52,9.90706354 9,12.9043895 9,16.4941753 L9,16.4941753 Z M9.803,22.7950649 C9.624,22.9231643 9.379,22.9221636 9.201,22.7940642 L4.376,19.2973506 C2.25,17.7571554 1,15.3482861 1,12.7933033 L1,4.16861037 C1,3.96445193 1.133,3.78431214 1.333,3.71625933 L9.334,0.986140693 C9.442,0.950112734 9.56,0.950112734 9.668,0.986140693 L17.748,3.71726011 C17.948,3.78531292 18.082,3.96645349 18.082,4.17061192 L18.082,9.15848263 C17.571,9.04939797 17.043,8.9883506 16.5,8.9883506 C16.293,8.9883506 16.089,9.00336225 15.886,9.01937468 L15.886,6.65854261 C15.886,6.04106343 15.474,5.49163707 14.863,5.29548485 L9.83,3.67422671 C9.512,3.5721475 9.167,3.57414905 8.852,3.68223293 L4.114,5.29048096 C3.515,5.4946394 3.115,6.03706033 3.115,6.64653329 L3.115,12.6131635 C3.115,14.1723735 3.834,15.6505206 5.08,16.6532988 L8.396,19.3213693 C8.763,19.6165984 9.238,19.7006636 9.681,19.6065906 C10.042,20.3962034 10.532,21.1137602 11.129,21.7272363 L9.803,22.7950649 Z M15.708,19.9714738 C15.154,19.8753992 14.604,19.6712408 14.124,19.3409845 C13.897,19.1848633 13.84,18.872621 13.997,18.6454447 C14.153,18.4172677 14.465,18.3612242 14.692,18.5173453 C15.206,18.8716203 15.865,19.0357476 16.471,19.0357476 C17.081,19.0357476 17.425,18.9496808 17.825,18.6214261 C18.001,18.478315 18.062,18.3412086 18.062,18.0719997 C18.062,17.6887023 17.871,17.4515182 17.388,17.2873909 C16.095,16.834039 15.39,16.5838449 15.244,16.5278014 C15.02,16.4397331 14.759,16.2926189 14.532,16.0964667 C14.172,15.7832236 13.948,15.3889176 13.948,14.9145495 C13.948,13.8697387 14.61,13.2662704 15.708,13.1001414 L15.708,12.3005209 C15.708,12.0253074 15.933,11.8001326 16.208,11.8001326 C16.484,11.8001326 16.708,12.0253074 16.708,12.3005209 L16.708,13.0601104 C17.444,13.0971391 18.041,13.2692727 18.495,13.5875197 C18.722,13.7466431 18.776,14.0588855 18.618,14.2840602 C18.46,14.5112365 18.148,14.5662792 17.922,14.4071557 C17.593,14.1769771 17.084,14.0528808 16.388,14.0528808 C15.375,14.0528808 14.948,14.3320975 14.948,14.9145495 C14.948,15.1877615 15.262,15.458972 15.608,15.5950776 C15.736,15.6451164 16.45,15.8983129 17.714,16.3416569 C18.579,16.6348845 19.062,17.2353505 19.062,18.0719997 C19.062,18.6314339 18.875,19.0557632 18.457,19.3980288 C17.908,19.8453759 17.401,20.0055002 16.708,20.0335219 L16.708,20.7070446 C16.708,20.9842597 16.484,21.2074329 16.208,21.2074329 C15.933,21.2074329 15.708,20.9842597 15.708,20.7070446 L15.708,19.9714738 Z" id="path-1"></path>
    </defs>
    <g id="Designs---Review-3" stroke="none" stroke-width="1" fill="none" fill-rule="evenodd">
        <g id="Artboard" transform="translate(-222.000000, -168.000000)">
            <g id="Group" transform="translate(222.000000, 168.500000)">
                <rect id="view-box" x="0" y="0" width="24" height="24"></rect>
                <mask id="mask-2" fill="white">
                    <use xlink:href="#path-1"></use>
                </mask>
                <use id="icon-color" fill="#056DAE" xlink:href="#path-1"></use>
            </g>
        </g>
    </g>
</svg>