<?xml version="1.0" encoding="UTF-8"?>
<svg width="24px" height="22px" viewBox="0 0 24 22" version="1.1" xmlns="http://www.w3.org/2000/svg" xmlns:xlink="http://www.w3.org/1999/xlink">
    <title>06-finance/138-savings@3x</title>
    <defs>
        <path d="M19.1097854,3.32189985 C18.6874622,3.5007407 18.0918425,3.88143105 17.3370214,4.46112758 C17.1754403,4.58522061 16.9546957,4.59888301 16.7790362,4.49566259 C15.0197232,3.46186138 12.8743084,2.93281516 10.5156023,3.00642878 C4.63207125,3.19004978 1,6.7409211 1,11.5038365 C1,14.3425626 2.21130344,16.8419469 4.45479103,18.3641407 C4.59379171,18.4584518 4.67612465,18.61624 4.67395636,18.7841632 L4.67391304,21.5005004 C4.67391304,21.7765507 4.89777067,22.0003336 5.17391304,22.0003336 L8.39130435,22.0003336 C8.66744672,22.0003336 8.89130435,21.7765507 8.89130435,21.5005004 L8.89130435,20.465655 C8.89130435,20.1746738 9.13896799,19.9452012 9.42920869,19.9672601 C9.79552195,19.9951007 10.1720446,20.0091368 10.5586158,20.0091368 C11.211392,20.0091368 11.8437929,19.9667827 12.4539823,19.8833516 C12.7542607,19.8422946 13.0217391,20.075601 13.0217391,20.3785741 L13.0217391,21.5005004 C13.0217391,21.7765507 13.2455968,22.0003336 13.5217391,22.0003336 L16.7391304,22.0003336 C17.0152728,22.0003336 17.2391304,21.7765507 17.2391304,21.5005004 L17.2391304,18.7908784 C17.2391304,18.72217 17.2255374,18.6562512 17.1994962,18.5951862 C17.1078132,18.3801959 17.1773982,18.1303951 17.3670421,17.9937195 C18.675688,17.0505837 19.6731096,15.8224055 20.283071,14.4334503 C20.3628308,14.2518276 20.5424764,14.1345375 20.7408963,14.1345375 L22.5,14.1345375 C22.7761424,14.1345375 23,13.9107546 23,13.6347043 L23,9.32035465 C23,9.0443044 22.7761424,8.82052146 22.5,8.82052146 L20.8587796,8.82052146 C20.6573124,8.82052146 20.4755262,8.69964737 20.3976472,8.51390323 C20.1151568,7.84015327 19.7302611,7.19872271 19.2530246,6.60754015 C19.1392544,6.46660593 19.1106423,6.27517672 19.178234,6.10715324 C19.2311811,5.97553418 19.2815679,5.82222677 19.3288954,5.64761336 C19.5389061,4.87278533 19.9465907,4.00393313 20.5505551,3.03653169 C19.9296696,3.0820412 19.4479137,3.17871294 19.1097854,3.32189985 Z M18.2269584,18.5993746 C18.2350364,18.6625174 18.2391304,18.7264558 18.2391304,18.7908784 L18.2391304,21.5005004 C18.2391304,22.3286512 17.5675576,23 16.7391304,23 L13.5217391,23 C12.693312,23 12.0217391,22.3286512 12.0217391,21.5005004 L12.0217391,20.9398069 C11.5447863,20.9856648 11.0568206,21.0088032 10.5586158,21.0088032 C10.333216,21.0088032 10.1107683,21.0043124 9.89130435,20.9953608 L9.89130435,21.5005004 C9.89130435,22.3286512 9.21973147,23 8.39130435,23 L5.17391304,23 C4.34548592,23 3.67391304,22.3286512 3.67391304,21.5005004 L3.67391304,19.037649 C1.28486916,17.309819 0,14.5688575 0,11.5038365 C0,6.18877836 4.0724625,2.20736134 10.4843977,2.00724921 C12.9013437,1.93181797 15.1266136,2.446866 16.9930255,3.46783114 C17.6883165,2.95065678 18.2605792,2.59585183 18.7197287,2.40141618 C19.3623604,2.12928148 20.2850364,2.0026462 21.5017934,2.00700901 C21.9048512,2.00845422 22.1406325,2.46160219 21.9104124,2.79233376 C21.0650871,4.00671864 20.5272732,5.04873672 20.2940931,5.90904765 C20.2661569,6.01211734 20.2369308,6.11027509 20.2063564,6.2035656 C20.5928747,6.71343092 20.9205392,7.25536864 21.1841992,7.82085507 L22.5,7.82085507 C23.3284271,7.82085507 24,8.4922039 24,9.32035465 L24,13.6347043 C24,14.4628551 23.3284271,15.1342039 22.5,15.1342039 L21.0610564,15.1342039 C20.4187327,16.4660701 19.4544278,17.6515992 18.2269584,18.5993746 Z M15.2440998,6.06928414 C15.4850981,6.20405177 15.5711786,6.50860506 15.436366,6.74952294 C15.3015534,6.99044082 14.9968985,7.0764926 14.7559002,6.94172497 C13.6057584,6.29855905 12.2245817,6.00567136 10.7132755,6.00567136 C9.55782402,6.00567136 8.23059939,6.39006726 7.24410031,6.9417247 C7.00310218,7.0764926 6.69844716,6.99044116 6.56363428,6.74952343 C6.4288214,6.50860569 6.51490156,6.20405231 6.75589969,6.06928441 C7.88440711,5.43821489 9.3767218,5.00600497 10.7132755,5.00600497 C12.3830707,5.00600497 13.9288756,5.33380316 15.2440998,6.06928414 Z" id="path-1"></path>
    </defs>
    <g id="Designs---Review-3" stroke="none" stroke-width="1" fill="none" fill-rule="evenodd">
        <g id="Artboard" transform="translate(-141.000000, -158.000000)">
            <g id="Group" transform="translate(141.000000, 156.500000)">
                <rect id="view-box" x="0" y="0" width="24" height="24"></rect>
                <mask id="mask-2" fill="white">
                    <use xlink:href="#path-1"></use>
                </mask>
                <use id="icon-color" fill="#056DAE" xlink:href="#path-1"></use>
            </g>
        </g>
    </g>
</svg>